<svg width="39" height="39" viewBox="0 0 39 39" fill="none" xmlns="http://www.w3.org/2000/svg">
<g clip-path="url(#clip0_1110_1807)">
<path fill-rule="evenodd" clip-rule="evenodd" d="M20.2882 8.55762C24.059 8.55762 25.9448 8.55714 27.1163 9.72852C28.2879 10.9001 28.2882 12.7864 28.2882 16.5576V22.2236C28.2882 25.9949 28.2879 27.8812 27.1163 29.0527C25.9448 30.2241 24.059 30.2236 20.2882 30.2236H18.9542C15.1833 30.2236 13.2976 30.2241 12.1261 29.0527C10.9545 27.8812 10.9542 25.9949 10.9542 22.2236V16.5576C10.9542 12.7864 10.9545 10.9001 12.1261 9.72852C13.2976 8.55714 15.1833 8.55762 18.9542 8.55762H20.2882ZM15.2882 24.8906C14.7359 24.8906 14.2882 25.3383 14.2882 25.8906C14.2882 26.4429 14.7359 26.8906 15.2882 26.8906H19.6212C20.1733 26.8904 20.6212 26.4428 20.6212 25.8906C20.6212 25.3384 20.1733 24.8908 19.6212 24.8906H15.2882ZM15.2882 21.6406C14.7359 21.6406 14.2882 22.0883 14.2882 22.6406C14.2882 23.1929 14.7359 23.6406 15.2882 23.6406H21.7882C22.3403 23.6404 22.7882 23.1928 22.7882 22.6406C22.7882 22.0884 22.3403 21.6408 21.7882 21.6406H15.2882ZM15.2882 18.3906C14.7359 18.3906 14.2882 18.8383 14.2882 19.3906C14.2882 19.9429 14.7359 20.3906 15.2882 20.3906H19.6212C20.1733 20.3904 20.6212 19.9428 20.6212 19.3906C20.6212 18.8384 20.1733 18.3908 19.6212 18.3906H15.2882Z" fill="#03CF65"/>
<path d="M28.2357 7.31934C28.6397 6.85806 29.3248 6.85821 29.7289 7.31934C30.0989 7.74186 30.0989 8.40167 29.7289 8.82422L24.1713 15.1719C23.7672 15.6334 23.0822 15.6334 22.6781 15.1719L20.4818 12.6641C20.112 12.2415 20.1119 11.5817 20.4818 11.1592C20.8859 10.6979 21.5709 10.698 21.975 11.1592L23.4223 12.8115L28.2357 7.31934Z" fill="white" stroke="#03CF65"/>
</g>
<defs>
<clipPath id="clip0_1110_1807">
<rect width="38.1198" height="38.1198" fill="white"/>
</clipPath>
</defs>
</svg>
