<svg width="25" height="25" viewBox="0 0 25 25" fill="none" xmlns="http://www.w3.org/2000/svg">
<g clip-path="url(#clip0_226_362)">
<path fill-rule="evenodd" clip-rule="evenodd" d="M14.0625 7.125C14.8638 7.125 15.5242 7.72819 15.6145 8.50528L15.625 8.6875V11.8125C15.625 11.0112 16.2282 10.3508 17.0053 10.2605L17.1875 10.25H20.3125C21.1138 10.25 21.7742 10.8532 21.8645 11.6303L21.875 11.8125V24.3125C21.875 25.1138 21.2718 25.7742 20.4947 25.8645L20.3125 25.875H4.6875C3.88619 25.875 3.22577 25.2718 3.13551 24.4947L3.125 24.3125V8.6875C3.125 7.88619 3.72819 7.22577 4.50528 7.13551L4.6875 7.125H14.0625ZM10.9375 19.625H7.8125C6.94955 19.625 6.25 20.3246 6.25 21.1875C6.25 21.9888 6.85319 22.6492 7.63028 22.7395L7.8125 22.75H10.9375C11.8004 22.75 12.5 22.0504 12.5 21.1875C12.5 20.3862 11.8968 19.7258 11.1197 19.6355L10.9375 19.625ZM10.9375 14.9375H7.8125C6.94955 14.9375 6.25 15.6371 6.25 16.5C6.25 17.3013 6.85319 17.9617 7.63028 18.052L7.8125 18.0625H10.9375C11.8004 18.0625 12.5 17.3629 12.5 16.5C12.5 15.6371 11.8004 14.9375 10.9375 14.9375ZM10.9375 10.25H7.8125C6.94955 10.25 6.25 10.9496 6.25 11.8125C6.25 12.6138 6.85319 13.2742 7.63028 13.3645L7.8125 13.375H10.9375C11.8004 13.375 12.5 12.6754 12.5 11.8125C12.5 10.9496 11.8004 10.25 10.9375 10.25Z" fill="#333333" fill-opacity="0.8"/>
</g>
<defs>
<clipPath id="clip0_226_362">
<rect width="25" height="25" fill="white"/>
</clipPath>
</defs>
</svg>
