<svg width="33" height="33" viewBox="0 0 33 33" fill="none" xmlns="http://www.w3.org/2000/svg">
<g clip-path="url(#clip0_46_664)">
<path d="M15.9971 14.6319C18.3599 14.6319 20.2754 12.7164 20.2754 10.3535C20.2754 7.99067 18.3599 6.0752 15.9971 6.0752C13.6342 6.0752 11.7188 7.99067 11.7188 10.3535C11.7188 12.7164 13.6342 14.6319 15.9971 14.6319Z" stroke="#03CF65" stroke-width="2" stroke-linecap="round" stroke-linejoin="round"/>
<path d="M7.36914 26.4752V24.0385C7.36914 21.2052 9.66413 18.9102 12.4975 18.9102H20.1758C23.0091 18.9102 25.3041 21.2052 25.3041 24.0385V26.4752" stroke="#03CF65" stroke-width="2" stroke-linecap="round" stroke-linejoin="round"/>
<mask id="path-3-inside-1_46_664" fill="white">
<path d="M26.6346 14.1243L25.1849 12.4686C25.022 12.2825 24.7588 12.2825 24.5958 12.4686C24.4329 12.6547 24.4329 12.9553 24.5958 13.1414L26.3422 15.1358C26.5051 15.3219 26.7683 15.3219 26.9313 15.1358L31.3514 10.0877C31.5144 9.90163 31.5144 9.60104 31.3514 9.41495C31.1885 9.22887 30.9253 9.22887 30.7624 9.41495L26.6346 14.1243Z"/>
</mask>
<path d="M26.6346 14.1243L25.1849 12.4686C25.022 12.2825 24.7588 12.2825 24.5958 12.4686C24.4329 12.6547 24.4329 12.9553 24.5958 13.1414L26.3422 15.1358C26.5051 15.3219 26.7683 15.3219 26.9313 15.1358L31.3514 10.0877C31.5144 9.90163 31.5144 9.60104 31.3514 9.41495C31.1885 9.22887 30.9253 9.22887 30.7624 9.41495L26.6346 14.1243Z" fill="#03CF65" fill-opacity="0.7"/>
<path d="M26.6346 14.1243L23.6252 16.7594L26.6331 20.1945L29.6427 16.7609L26.6346 14.1243ZM25.1849 12.4686L28.1943 9.83357V9.83357L25.1849 12.4686ZM24.5958 13.1414L27.6052 10.5063L27.6052 10.5063L24.5958 13.1414ZM26.3422 15.1358L23.3328 17.7709H23.3328L26.3422 15.1358ZM26.9313 15.1358L23.9219 12.5008H23.9219L26.9313 15.1358ZM31.3514 10.0877L34.3608 12.7228V12.7228L31.3514 10.0877ZM30.7624 9.41495L33.7704 12.0515L33.7717 12.05L30.7624 9.41495ZM26.6346 14.1243L29.644 11.4892L28.1943 9.83357L25.1849 12.4686L22.1755 15.1037L23.6252 16.7594L26.6346 14.1243ZM25.1849 12.4686L28.1943 9.83357C26.4378 7.82757 23.3429 7.82757 21.5864 9.83357L24.5958 12.4686L27.6052 15.1037C26.9606 15.8399 25.9867 16.3291 24.8904 16.3291C23.7941 16.3291 22.8201 15.8399 22.1755 15.1037L25.1849 12.4686ZM24.5958 12.4686L21.5864 9.83357C20.1027 11.5281 20.1027 14.0819 21.5864 15.7765L24.5958 13.1414L27.6052 10.5063C28.7631 11.8287 28.7631 13.7813 27.6052 15.1037L24.5958 12.4686ZM24.5958 13.1414L21.5864 15.7765L23.3328 17.7709L26.3422 15.1358L29.3516 12.5008L27.6052 10.5063L24.5958 13.1414ZM26.3422 15.1358L23.3328 17.7709C25.0893 19.7769 28.1842 19.7769 29.9407 17.7709L26.9313 15.1358L23.9219 12.5008C24.5665 11.7646 25.5404 11.2754 26.6367 11.2754C27.733 11.2754 28.707 11.7646 29.3516 12.5008L26.3422 15.1358ZM26.9313 15.1358L29.9407 17.7709L34.3608 12.7228L31.3514 10.0877L28.342 7.45266L23.9219 12.5008L26.9313 15.1358ZM31.3514 10.0877L34.3608 12.7228C35.8446 11.0283 35.8446 8.47442 34.3608 6.7799L31.3514 9.41495L28.342 12.05C27.1842 10.7277 27.1842 8.77502 28.342 7.45266L31.3514 10.0877ZM31.3514 9.41495L34.3608 6.7799C32.6043 4.77389 29.5094 4.77389 27.753 6.7799L30.7624 9.41495L33.7717 12.05C33.1271 12.7862 32.1532 13.2754 31.0569 13.2754C29.9606 13.2754 28.9866 12.7862 28.342 12.05L31.3514 9.41495ZM30.7624 9.41495L27.7543 6.77839L23.6266 11.4877L26.6346 14.1243L29.6427 16.7609L33.7704 12.0515L30.7624 9.41495Z" fill="#03CF65" mask="url(#path-3-inside-1_46_664)"/>
</g>
<defs>
<clipPath id="clip0_46_664">
<rect width="32.8417" height="32.8417" fill="white"/>
</clipPath>
</defs>
</svg>
