<svg width="33" height="33" viewBox="0 0 33 33" fill="none" xmlns="http://www.w3.org/2000/svg">
<g clip-path="url(#clip0_46_664)">
<path d="M15.9971 14.6326C18.3599 14.6326 20.2754 12.7171 20.2754 10.3543C20.2754 7.99143 18.3599 6.07596 15.9971 6.07596C13.6342 6.07596 11.7188 7.99143 11.7188 10.3543C11.7188 12.7171 13.6342 14.6326 15.9971 14.6326Z" stroke="#03CF65" stroke-width="2" stroke-linecap="round" stroke-linejoin="round"/>
<path d="M7.36914 26.476V24.0394C7.36914 21.206 9.66413 18.911 12.4975 18.911H20.1758C23.0091 18.911 25.3041 21.206 25.3041 24.0394V26.476" stroke="#03CF65" stroke-width="2" stroke-linecap="round" stroke-linejoin="round"/>
<mask id="path-3-inside-1_46_664" fill="white">
<path d="M26.6346 14.1248L25.1849 12.4691C25.022 12.283 24.7588 12.283 24.5958 12.4691C24.4329 12.6552 24.4329 12.9558 24.5958 13.1419L26.3422 15.1363C26.5051 15.3224 26.7683 15.3224 26.9313 15.1363L31.3514 10.0882C31.5144 9.90212 31.5144 9.60153 31.3514 9.41544C31.1885 9.22936 30.9253 9.22936 30.7624 9.41544L26.6346 14.1248Z"/>
</mask>
<path d="M26.6346 14.1248L25.1849 12.4691C25.022 12.283 24.7588 12.283 24.5958 12.4691C24.4329 12.6552 24.4329 12.9558 24.5958 13.1419L26.3422 15.1363C26.5051 15.3224 26.7683 15.3224 26.9313 15.1363L31.3514 10.0882C31.5144 9.90212 31.5144 9.60153 31.3514 9.41544C31.1885 9.22936 30.9253 9.22936 30.7624 9.41544L26.6346 14.1248Z" fill="#03CF65" fill-opacity="0.7"/>
<path d="M26.6346 14.1248L23.6252 16.7598L26.6331 20.195L29.6427 16.7614L26.6346 14.1248ZM25.1849 12.4691L28.1943 9.83406V9.83406L25.1849 12.4691ZM24.5958 13.1419L27.6052 10.5068L27.6052 10.5068L24.5958 13.1419ZM26.3422 15.1363L23.3328 17.7714H23.3328L26.3422 15.1363ZM26.9313 15.1363L23.9219 12.5013H23.9219L26.9313 15.1363ZM31.3514 10.0882L34.3608 12.7233V12.7233L31.3514 10.0882ZM30.7624 9.41544L33.7704 12.052L33.7717 12.0505L30.7624 9.41544ZM26.6346 14.1248L29.644 11.4897L28.1943 9.83406L25.1849 12.4691L22.1755 15.1042L23.6252 16.7598L26.6346 14.1248ZM25.1849 12.4691L28.1943 9.83406C26.4378 7.82805 23.3429 7.82805 21.5864 9.83406L24.5958 12.4691L27.6052 15.1042C26.9606 15.8403 25.9867 16.3296 24.8904 16.3296C23.7941 16.3296 22.8201 15.8403 22.1755 15.1042L25.1849 12.4691ZM24.5958 12.4691L21.5864 9.83406C20.1027 11.5286 20.1027 14.0824 21.5864 15.7769L24.5958 13.1419L27.6052 10.5068C28.7631 11.8292 28.7631 13.7818 27.6052 15.1042L24.5958 12.4691ZM24.5958 13.1419L21.5864 15.7769L23.3328 17.7714L26.3422 15.1363L29.3516 12.5013L27.6052 10.5068L24.5958 13.1419ZM26.3422 15.1363L23.3328 17.7714C25.0893 19.7774 28.1842 19.7774 29.9407 17.7714L26.9313 15.1363L23.9219 12.5013C24.5665 11.7651 25.5404 11.2759 26.6367 11.2759C27.733 11.2759 28.707 11.7651 29.3516 12.5013L26.3422 15.1363ZM26.9313 15.1363L29.9407 17.7714L34.3608 12.7233L31.3514 10.0882L28.342 7.45315L23.9219 12.5013L26.9313 15.1363ZM31.3514 10.0882L34.3608 12.7233C35.8446 11.0287 35.8446 8.47491 34.3608 6.78039L31.3514 9.41544L28.342 12.0505C27.1842 10.7281 27.1842 8.7755 28.342 7.45315L31.3514 10.0882ZM31.3514 9.41544L34.3608 6.78039C32.6043 4.77438 29.5094 4.77438 27.753 6.78039L30.7624 9.41544L33.7717 12.0505C33.1271 12.7867 32.1532 13.2759 31.0569 13.2759C29.9606 13.2759 28.9866 12.7867 28.342 12.0505L31.3514 9.41544ZM30.7624 9.41544L27.7543 6.77887L23.6266 11.4882L26.6346 14.1248L29.6427 16.7614L33.7704 12.052L30.7624 9.41544Z" fill="#03CF65" mask="url(#path-3-inside-1_46_664)"/>
</g>
<defs>
<clipPath id="clip0_46_664">
<rect width="32.8417" height="32.8417" fill="white"/>
</clipPath>
</defs>
</svg>
