<svg width="35" height="33" viewBox="0 0 35 33" fill="none" xmlns="http://www.w3.org/2000/svg">
<path opacity="0.78" fill-rule="evenodd" clip-rule="evenodd" d="M15.5815 10.1091C15.6035 9.85027 15.8199 9.65137 16.0797 9.65137H16.8169C17.0718 9.65137 17.2859 9.84315 17.3139 10.0965L18.087 17.1048L23.5725 19.9463C23.7384 20.0322 23.8425 20.2034 23.8425 20.3902V20.9382C23.8425 21.2629 23.5378 21.5015 23.2225 21.4235L15.2124 19.4432C14.9738 19.3842 14.8134 19.1605 14.8342 18.9156L15.5815 10.1091Z" fill="#FF9066"/>
<path opacity="0.901274" fill-rule="evenodd" clip-rule="evenodd" d="M7.27148 0.357867C7.37067 -0.0190901 7.90087 -0.126861 8.17871 0.173297L10.5146 2.69673C12.5887 1.8971 14.8705 1.45259 17.2666 1.45259L17.7119 1.45845C27.042 1.67277 34.5331 8.59563 34.5332 17.1049C34.5332 25.7493 26.8025 32.7571 17.2666 32.7573C7.73048 32.7573 0 25.7494 0 17.1049C1.39291e-05 15.6369 0.22273 14.216 0.639648 12.8686L3.80566 13.6743C3.46359 14.7799 3.2881 15.9304 3.28809 17.1049C3.28809 24.1028 9.54688 29.7758 17.2666 29.7758C24.9861 29.7756 31.2441 24.1027 31.2441 17.1049C31.2441 10.2164 25.1799 4.6114 17.627 4.43795L17.2666 4.43404C15.7048 4.43404 14.1837 4.66715 12.749 5.1108L15.0918 7.64205C15.3697 7.94263 15.1596 8.3972 14.7324 8.41939L5.73145 8.8813C5.37862 8.8993 5.10257 8.60015 5.18457 8.28853L7.27148 0.357867Z" fill="#FF9066"/>
</svg>
