<svg width="20" height="21" viewBox="0 0 20 21" fill="none" xmlns="http://www.w3.org/2000/svg">
<path d="M8.95245 4.38618C9.29113 4.3361 9.64051 4.30924 10.0003 4.30924C14.2545 4.30924 17.0461 8.06328 17.9839 9.54826C18.0974 9.728 18.1542 9.81786 18.1859 9.95647C18.2098 10.0606 18.2098 10.2248 18.1859 10.3289C18.1541 10.4675 18.097 10.558 17.9827 10.7389C17.7328 11.1344 17.3518 11.6902 16.8471 12.293M5.6036 5.73844C3.80187 6.96066 2.57871 8.65873 2.01759 9.54698C1.90357 9.72747 1.84656 9.81772 1.81478 9.95631C1.79091 10.0604 1.7909 10.2246 1.81476 10.3287C1.84652 10.4673 1.90328 10.5572 2.01678 10.7369C2.95462 12.2219 5.74618 15.9759 10.0003 15.9759C11.7157 15.9759 13.1932 15.3656 14.4073 14.5397M2.50035 2.64258L17.5003 17.6426M8.23258 8.37481C7.78017 8.82722 7.50035 9.45222 7.50035 10.1426C7.50035 11.5233 8.61963 12.6426 10.0003 12.6426C10.6907 12.6426 11.3157 12.3628 11.7681 11.9103" stroke="#787676" stroke-width="2" stroke-linecap="round" stroke-linejoin="round"/>
</svg>
