<svg width="18" height="18" viewBox="0 0 18 18" fill="none" xmlns="http://www.w3.org/2000/svg">
<path d="M11.9998 4.49995L5.68928 10.9394C5.40791 11.2208 5.24985 11.6024 5.24985 12.0003C5.24985 12.3982 5.40791 12.7798 5.68928 13.0612C5.97064 13.3426 6.35225 13.5006 6.75015 13.5006C7.14806 13.5006 7.52966 13.3426 7.81103 13.0612L14.1215 6.6217C14.6842 6.05907 15.0002 5.29599 15.0002 4.50032C15.0002 3.70465 14.6842 2.94157 14.1215 2.37895C13.5589 1.81632 12.7958 1.50024 12.0002 1.50024C11.2045 1.50024 10.4414 1.81632 9.87878 2.37895L3.59453 8.7922C3.17108 9.20881 2.8343 9.70513 2.60363 10.2525C2.37295 10.8 2.25294 11.3876 2.25053 11.9817C2.24811 12.5757 2.36332 13.1643 2.58953 13.7136C2.81574 14.2629 3.14846 14.7619 3.56851 15.182C3.98855 15.602 4.48761 15.9347 5.03688 16.1609C5.58616 16.3871 6.17478 16.5024 6.76881 16.4999C7.36284 16.4975 7.95051 16.3775 8.49792 16.1468C9.04534 15.9162 9.54167 15.5794 9.95828 15.1559L16.2425 8.7427" stroke="#4B5563" stroke-width="1.5" stroke-linecap="round" stroke-linejoin="round"/>
</svg>
