<svg width="24" height="24" viewBox="0 0 24 24" fill="none" xmlns="http://www.w3.org/2000/svg">
<path d="M15 17.6396L16 17.6397V17.6396H15ZM14.6582 18.1143L14.9743 19.063L14.9744 19.0629L14.6582 18.1143ZM9.6582 19.7803L9.34209 18.8316L9.34198 18.8316L9.6582 19.7803ZM9 19.3066H8L8 19.3073L9 19.3066ZM8.70711 11.7071L9.41421 11L8.70711 11.7071ZM15.2929 11.7071L14.5858 11L15.2929 11.7071ZM19.7071 7.29289L20.4142 8L19.7071 7.29289ZM19.7071 7.29289L19 6.58579L14.5858 11L15.2929 11.7071L16 12.4142L20.4142 8L19.7071 7.29289ZM15 12.4142H14V17.6396H15H16V12.4142H15ZM15 17.6396L14 17.6396C14 17.4254 14.1369 17.2339 14.342 17.1656L14.6582 18.1143L14.9744 19.0629C15.5878 18.8585 16 18.2843 16 17.6397L15 17.6396ZM14.6582 18.1143L14.3421 17.1655L9.34209 18.8316L9.6582 19.7803L9.97432 20.729L14.9743 19.063L14.6582 18.1143ZM9.6582 19.7803L9.34198 18.8316C9.66442 18.7241 9.99977 18.9636 10 19.306L9 19.3066L8 19.3073C8.00068 20.3319 9.00467 21.0522 9.97443 20.729L9.6582 19.7803ZM9 19.3066H10V12.4142H9H8V19.3066H9ZM8.70711 11.7071L9.41421 11L5 6.58579L4.29289 7.29289L3.58579 8L8 12.4142L8.70711 11.7071ZM4 6.58579H5V5H4H3V6.58579H4ZM5 4V5H19V4V3H5V4ZM20 5H19V6.58579H20H21V5H20ZM19 4V5V5H20H21C21 3.89543 20.1046 3 19 3V4ZM4 5H5V5V4V3C3.89543 3 3 3.89543 3 5H4ZM4.29289 7.29289L5 6.58579H5H4H3C3 7.11622 3.21071 7.62493 3.58579 8L4.29289 7.29289ZM9 12.4142H10C10 11.8838 9.78929 11.3751 9.41421 11L8.70711 11.7071L8 12.4142V12.4142H9ZM15.2929 11.7071L14.5858 11C14.2107 11.3751 14 11.8838 14 12.4142H15H16V12.4142L15.2929 11.7071ZM19.7071 7.29289L20.4142 8C20.7893 7.62493 21 7.11622 21 6.58579H20H19V6.58579L19.7071 7.29289Z" fill="#8BA3CB"/>
</svg>
