<svg width="35" height="34" viewBox="0 0 35 34" fill="none" xmlns="http://www.w3.org/2000/svg">
<g clip-path="url(#clip0_1109_2526)">
<path d="M8.87532 33.8797C7.52153 33.865 6.18048 33.6238 4.91102 33.1666C3.98401 32.8338 3.14529 32.3039 2.4562 31.6157C1.74582 30.9476 1.19951 30.1326 0.85785 29.2313C0.387664 27.9982 0.139721 26.6956 0.124903 25.3807C0.0209315 23.1947 0 22.539 0 17C0 11.461 0.0229904 10.8077 0.123874 8.62C0.140489 7.30559 0.388737 6.00365 0.85785 4.77066C1.20117 3.87 1.74671 3.05493 2.45482 2.38467C3.14307 1.69521 3.98218 1.16501 4.90999 0.833333C6.17945 0.376205 7.5205 0.135009 8.87429 0.120333C11.1253 0.0203333 11.8013 0 17.5001 0C23.199 0 23.8747 0.0223333 26.1267 0.120333C27.4801 0.13636 28.8207 0.377515 30.0903 0.833333C31.0177 1.16544 31.8566 1.69546 32.5451 2.38433C33.2545 3.05341 33.8003 3.86853 34.1424 4.76966C34.6131 6.00282 34.8615 7.30555 34.8768 8.62066C34.9797 10.8083 35.0006 11.4633 35.0006 17.0007C35.0006 22.538 34.9797 23.193 34.8768 25.3807C34.8604 26.6956 34.612 27.998 34.1424 29.2313C33.7872 30.1257 33.2431 30.9379 32.5452 31.6157C31.8473 32.2935 31.0111 32.8218 30.0903 33.1666C28.8209 33.6239 27.4798 33.8652 26.126 33.88C23.876 33.98 23.1997 34.0003 17.4995 34.0003C11.7992 34.0003 11.1249 33.981 8.87498 33.88" fill="url(#paint0_radial_1109_2526)"/>
<path d="M8.87532 33.8797C7.52153 33.865 6.18048 33.6238 4.91102 33.1666C3.98401 32.8338 3.14529 32.3039 2.4562 31.6157C1.74582 30.9476 1.19951 30.1326 0.85785 29.2313C0.387664 27.9982 0.139721 26.6956 0.124903 25.3807C0.0209315 23.1947 0 22.539 0 17C0 11.461 0.0229904 10.8077 0.123874 8.62C0.140489 7.30559 0.388737 6.00365 0.85785 4.77066C1.20117 3.87 1.74671 3.05493 2.45482 2.38467C3.14307 1.69521 3.98218 1.16501 4.90999 0.833333C6.17945 0.376205 7.5205 0.135009 8.87429 0.120333C11.1253 0.0203333 11.8013 0 17.5001 0C23.199 0 23.8747 0.0223333 26.1267 0.120333C27.4801 0.13636 28.8207 0.377515 30.0903 0.833333C31.0177 1.16544 31.8566 1.69546 32.5451 2.38433C33.2545 3.05341 33.8003 3.86853 34.1424 4.76966C34.6131 6.00282 34.8615 7.30555 34.8768 8.62066C34.9797 10.8083 35.0006 11.4633 35.0006 17.0007C35.0006 22.538 34.9797 23.193 34.8768 25.3807C34.8604 26.6956 34.612 27.998 34.1424 29.2313C33.7872 30.1257 33.2431 30.9379 32.5452 31.6157C31.8473 32.2935 31.0111 32.8218 30.0903 33.1666C28.8209 33.6239 27.4798 33.8652 26.126 33.88C23.876 33.98 23.1997 34.0003 17.4995 34.0003C11.7992 34.0003 11.1249 33.981 8.87498 33.88" fill="url(#paint1_radial_1109_2526)"/>
<path d="M13.203 17.0727C13.2031 16.24 13.4574 15.426 13.9337 14.7336C14.41 14.0412 15.087 13.5016 15.879 13.183C16.671 12.8644 17.5425 12.7812 18.3833 12.9437C19.224 13.1063 19.9963 13.5073 20.6023 14.0962C21.2084 14.6851 21.6211 15.4354 21.7883 16.2522C21.9554 17.0689 21.8695 17.9155 21.5413 18.6848C21.2131 19.4541 20.6575 20.1116 19.9447 20.5742C19.2318 21.0367 18.3938 21.2835 17.5366 21.2834C16.3871 21.2832 15.2848 20.8395 14.4721 20.0498C13.6594 19.2602 13.2029 18.1893 13.203 17.0727ZM10.8597 17.0727C10.8597 18.3555 11.2513 19.6095 11.985 20.6761C12.7186 21.7428 13.7614 22.5741 14.9814 23.065C16.2015 23.5559 17.544 23.6844 18.8391 23.4341C20.1343 23.1838 21.324 22.5661 22.2578 21.659C23.1916 20.7519 23.8275 19.5962 24.0851 18.3381C24.3427 17.0799 24.2105 15.7758 23.7051 14.5906C23.1998 13.4055 22.344 12.3925 21.246 11.6798C20.148 10.9671 18.8571 10.5867 17.5366 10.5867C16.6597 10.5867 15.7915 10.7544 14.9814 11.0803C14.1713 11.4063 13.4352 11.884 12.8152 12.4863C12.1952 13.0886 11.7034 13.8036 11.3679 14.5906C11.0324 15.3775 10.8597 16.2209 10.8597 17.0727ZM22.9173 10.3297C22.9172 10.6295 23.0086 10.9226 23.1799 11.1719C23.3512 11.4212 23.5948 11.6156 23.8799 11.7304C24.1649 11.8453 24.4786 11.8754 24.7813 11.8171C25.084 11.7587 25.3621 11.6145 25.5804 11.4026C25.7987 11.1907 25.9474 10.9207 26.0077 10.6267C26.0681 10.3327 26.0373 10.028 25.9193 9.75098C25.8014 9.47397 25.6015 9.23718 25.345 9.07053C25.0885 8.90387 24.7869 8.81485 24.4783 8.81472C24.0646 8.81489 23.668 8.97454 23.3755 9.25861C23.0829 9.54267 22.9184 9.9279 22.918 10.3297M12.2841 27.3544C11.4596 27.3456 10.6428 27.199 9.86942 26.921C9.30858 26.7111 8.79923 26.3893 8.37413 25.9765C7.94903 25.5638 7.61762 25.0691 7.40121 24.5244C7.11496 23.7732 6.96406 22.9797 6.95513 22.1787C6.892 20.8474 6.87964 20.4474 6.87964 17.0744C6.87964 13.7014 6.89337 13.3024 6.95513 11.9697C6.96514 11.1688 7.116 10.3755 7.40121 9.62404C7.61737 9.07907 7.94868 8.58414 8.3738 8.17117C8.79892 7.7582 9.30841 7.43635 9.86942 7.22638C10.6427 6.94831 11.4596 6.80173 12.2841 6.79305C13.6546 6.73172 14.0664 6.71972 17.5372 6.71972C21.0081 6.71972 21.4202 6.73272 22.7921 6.79339C23.6165 6.8031 24.4332 6.94965 25.2068 7.22671C25.7678 7.43671 26.2773 7.75856 26.7024 8.17153C27.1275 8.5845 27.4588 9.07941 27.675 9.62438C27.9612 10.3756 28.1121 11.1691 28.1211 11.9701C28.1842 13.3034 28.1965 13.7014 28.1965 17.0747C28.1965 20.448 28.1839 20.8467 28.1211 22.1794C28.1115 22.9803 27.9606 23.7737 27.675 24.525C27.4586 25.0698 27.1272 25.5644 26.7021 25.9772C26.277 26.39 25.7676 26.7117 25.2068 26.9217C24.4335 27.1998 23.6166 27.3464 22.7921 27.355C21.4216 27.4164 21.0098 27.4284 17.5372 27.4284C14.0647 27.4284 13.6543 27.416 12.2841 27.355M12.1764 4.51872C11.0975 4.53932 10.03 4.73769 9.01946 5.10538C8.15561 5.42983 7.37108 5.92607 6.71618 6.56226C6.06127 7.19844 5.55044 7.96055 5.21644 8.79971C4.83798 9.78138 4.63378 10.8183 4.61252 11.8664C4.54835 13.213 4.53394 13.6437 4.53394 17.074C4.53394 20.5044 4.54869 20.9347 4.61252 22.2817C4.63377 23.3298 4.83798 24.3667 5.21644 25.3484C5.55046 26.1875 6.0613 26.9496 6.7162 27.5858C7.3711 28.222 8.15562 28.7182 9.01946 29.0427C10.0301 29.4102 11.0975 29.6086 12.1764 29.6294C13.5633 29.6907 14.006 29.7057 17.5372 29.7057C21.0685 29.7057 21.5115 29.6914 22.8981 29.6294C23.977 29.6087 25.0444 29.4103 26.055 29.0427C26.9189 28.7182 27.7034 28.222 28.3583 27.5858C29.0132 26.9496 29.524 26.1875 29.858 25.3484C30.237 24.3668 30.4412 23.3298 30.462 22.2817C30.5251 20.934 30.5395 20.5044 30.5395 17.074C30.5395 13.6437 30.5248 13.2134 30.462 11.8664C30.4408 10.8183 30.2365 9.78137 29.858 8.79971C29.524 7.96071 29.0133 7.19872 28.3586 6.56255C27.7039 5.92638 26.9196 5.43006 26.056 5.10538C25.0456 4.73745 23.9781 4.53908 22.8992 4.51872C21.5125 4.45705 21.0695 4.44238 17.539 4.44238C14.0084 4.44238 13.5644 4.45672 12.177 4.51872" fill="white"/>
</g>
<defs>
<radialGradient id="paint0_radial_1109_2526" cx="0" cy="0" r="1" gradientUnits="userSpaceOnUse" gradientTransform="translate(2.26507 33.2553) scale(44.4373 43.1673)">
<stop offset="0.09" stop-color="#FA8F21"/>
<stop offset="0.78" stop-color="#D82D7E"/>
</radialGradient>
<radialGradient id="paint1_radial_1109_2526" cx="0" cy="0" r="1" gradientUnits="userSpaceOnUse" gradientTransform="translate(24.2435 32.1633) scale(39.1053 37.9876)">
<stop offset="0.64" stop-color="#8C3AAA" stop-opacity="0"/>
<stop offset="1" stop-color="#8C3AAA"/>
</radialGradient>
<clipPath id="clip0_1109_2526">
<rect width="35.0003" height="34" fill="white"/>
</clipPath>
</defs>
</svg>
