<svg width="26" height="26" viewBox="0 0 26 26" fill="none" xmlns="http://www.w3.org/2000/svg">
<path d="M14.417 0.666992C18.396 0.666992 20.3852 0.667173 21.8145 1.62207C22.4332 2.0355 22.9645 2.5668 23.3779 3.18555C24.3328 4.61477 24.333 6.60403 24.333 10.583C24.333 14.5623 24.3329 16.5522 23.3779 17.9814C22.9645 18.6001 22.4332 19.1315 21.8145 19.5449C20.5659 20.3791 18.8897 20.4837 15.833 20.4971V20.5L13.8945 24.3779C13.526 25.1149 12.474 25.1149 12.1055 24.3779L10.167 20.5V20.4971C7.11027 20.4837 5.43414 20.3791 4.18555 19.5449C3.56684 19.1315 3.03549 18.6001 2.62207 17.9814C1.66706 16.5522 1.66699 14.5623 1.66699 10.583C1.66699 6.60403 1.66717 4.61477 2.62207 3.18555C3.0355 2.5668 3.5668 2.0355 4.18555 1.62207C5.61477 0.667173 7.60403 0.666992 11.583 0.666992H14.417ZM7.33301 9.16699C6.55086 9.16717 5.91717 9.80086 5.91699 10.583C5.91699 11.3653 6.55075 11.9998 7.33301 12C8.11541 12 8.75 11.3654 8.75 10.583C8.74982 9.80075 8.1153 9.16699 7.33301 9.16699ZM13 9.16699C12.2177 9.16699 11.5832 9.80075 11.583 10.583C11.583 11.3654 12.2176 12 13 12C13.7824 12 14.417 11.3654 14.417 10.583C14.4168 9.80075 13.7823 9.16699 13 9.16699ZM18.667 9.16699C17.8847 9.16699 17.2502 9.80075 17.25 10.583C17.25 11.3654 17.8846 12 18.667 12C19.4492 11.9998 20.083 11.3653 20.083 10.583C20.0828 9.80086 19.4491 9.16717 18.667 9.16699Z" fill="#707070"/>
</svg>
