<svg width="33" height="33" viewBox="0 0 33 33" fill="none" xmlns="http://www.w3.org/2000/svg">
<g clip-path="url(#clip0_226_445)">
<path d="M11.5781 15.5478C11.9795 15.5481 12.3047 15.8739 12.3047 16.2754C12.3044 16.6766 11.9793 17.0017 11.5781 17.0019C11.1767 17.0019 10.8508 16.6767 10.8506 16.2754C10.8506 15.8738 11.1766 15.5478 11.5781 15.5478Z" fill="#6E508E" stroke="#718EBF"/>
<path d="M16.4736 15.5479C16.875 15.5481 17.2002 15.874 17.2002 16.2754C17.2 16.6766 16.8748 17.0017 16.4736 17.002C16.0722 17.002 15.7463 16.6767 15.7461 16.2754C15.7461 15.8738 16.0721 15.5479 16.4736 15.5479Z" fill="#6E508E" stroke="#718EBF"/>
<path d="M21.3682 15.5478C21.7695 15.5481 22.0947 15.8739 22.0947 16.2754C22.0945 16.6766 21.7694 17.0017 21.3682 17.0019C20.9668 17.0019 20.6409 16.6767 20.6406 16.2754C20.6406 15.8738 20.9666 15.5478 21.3682 15.5478Z" fill="#6E508E" stroke="#718EBF"/>
<path d="M26.5272 20.8021H26.5152C27.1347 19.4201 27.4921 17.8833 27.4921 16.275C27.4921 10.1872 22.56 5.25497 16.4721 5.25497C10.3843 5.25497 5.45215 10.1872 5.45215 16.275C5.45215 22.3628 10.3843 27.295 16.4721 27.295C18.2711 27.295 19.9747 26.8542 21.4758 26.0917L27.4326 26.9733L26.5272 20.8021Z" stroke="#718EBF" stroke-width="1.5" stroke-linecap="round" stroke-linejoin="round"/>
</g>
<defs>
<clipPath id="clip0_226_445">
<rect width="32.8417" height="32.8417" fill="white"/>
</clipPath>
</defs>
</svg>
