<svg width="35" height="35" viewBox="0 0 35 35" fill="none" xmlns="http://www.w3.org/2000/svg">
<path d="M30.1875 20.7083C30.1843 19.8329 29.9185 18.9786 29.4245 18.2559C28.9306 17.5331 28.2311 16.9752 27.4167 16.6542L30.1437 6.44585C30.2007 6.22844 30.2067 6.00081 30.1611 5.78072C30.1156 5.56063 30.0198 5.35405 29.8812 5.1771C29.7396 5.01129 29.5626 4.87937 29.3632 4.79103C29.1638 4.7027 28.9471 4.66021 28.7292 4.66668H8.75L8.26875 2.82918C8.18508 2.51843 8.00097 2.24407 7.7451 2.04888C7.48923 1.85368 7.17599 1.7486 6.85417 1.75001H3.9375V4.66668H5.73125L9.34792 18.1708C9.43337 18.489 9.62404 18.7688 9.88885 18.9648C10.1537 19.1608 10.477 19.2613 10.8062 19.25H25.8125C26.1993 19.25 26.5702 19.4037 26.8437 19.6772C27.1172 19.9506 27.2708 20.3216 27.2708 20.7083C27.2708 21.0951 27.1172 21.4661 26.8437 21.7395C26.5702 22.013 26.1993 22.1667 25.8125 22.1667H6.85417C6.46739 22.1667 6.09646 22.3203 5.82297 22.5938C5.54948 22.8673 5.39583 23.2382 5.39583 23.625C5.39583 24.0118 5.54948 24.3827 5.82297 24.6562C6.09646 24.9297 6.46739 25.0833 6.85417 25.0833H8.575C8.33516 25.7442 8.25808 26.453 8.35031 27.15C8.44254 27.8469 8.70136 28.5113 9.10484 29.087C9.50832 29.6627 10.0446 30.1326 10.6682 30.4571C11.2919 30.7816 11.9845 30.951 12.6875 30.951C13.3905 30.951 14.0831 30.7816 14.7068 30.4571C15.3304 30.1326 15.8667 29.6627 16.2702 29.087C16.6736 28.5113 16.9325 27.8469 17.0247 27.15C17.1169 26.453 17.0398 25.7442 16.8 25.0833H20.2417C20.0233 25.6851 19.9397 26.3274 19.9967 26.9649C20.0536 27.6025 20.2498 28.2198 20.5713 28.7733C20.8928 29.3268 21.3319 29.8029 21.8576 30.1682C22.3832 30.5335 22.9826 30.779 23.6134 30.8874C24.2443 30.9958 24.8913 30.9645 25.5087 30.7956C26.1261 30.6267 26.6989 30.3244 27.1868 29.91C27.6746 29.4955 28.0656 28.9791 28.3321 28.3971C28.5986 27.8151 28.7341 27.1818 28.7292 26.5417C28.7265 25.7883 28.5253 25.0488 28.1458 24.3979C28.7694 24.0048 29.2836 23.4604 29.6405 22.8153C29.9974 22.1703 30.1856 21.4455 30.1875 20.7083ZM24.4854 16.3333H11.9583L9.5375 7.58335H26.8333L24.4854 16.3333ZM12.6875 28C12.3991 28 12.1171 27.9145 11.8773 27.7542C11.6375 27.594 11.4506 27.3662 11.3402 27.0998C11.2298 26.8333 11.2009 26.5401 11.2572 26.2572C11.3135 25.9743 11.4524 25.7144 11.6563 25.5105C11.8603 25.3065 12.1201 25.1676 12.403 25.1114C12.6859 25.0551 12.9791 25.084 13.2456 25.1944C13.5121 25.3047 13.7398 25.4917 13.9001 25.7315C14.0603 25.9713 14.1458 26.2533 14.1458 26.5417C14.1458 26.9285 13.9922 27.2994 13.7187 27.5729C13.4452 27.8464 13.0743 28 12.6875 28ZM24.3542 28C24.0657 28 23.7838 27.9145 23.544 27.7542C23.3041 27.594 23.1172 27.3662 23.0068 27.0998C22.8965 26.8333 22.8676 26.5401 22.9239 26.2572C22.9801 25.9743 23.119 25.7144 23.323 25.5105C23.5269 25.3065 23.7868 25.1676 24.0697 25.1114C24.3525 25.0551 24.6458 25.084 24.9122 25.1944C25.1787 25.3047 25.4065 25.4917 25.5667 25.7315C25.727 25.9713 25.8125 26.2533 25.8125 26.5417C25.8125 26.9285 25.6589 27.2994 25.3854 27.5729C25.1119 27.8464 24.7409 28 24.3542 28Z" fill="#2159E2"/>
</svg>
