<svg width="33" height="33" viewBox="0 0 33 33" fill="none" xmlns="http://www.w3.org/2000/svg">
<g clip-path="url(#clip0_226_426)">
<path d="M12.9971 13.6319C15.3599 13.6319 17.2754 11.7164 17.2754 9.35352C17.2754 6.99067 15.3599 5.0752 12.9971 5.0752C10.6342 5.0752 8.71875 6.99067 8.71875 9.35352C8.71875 11.7164 10.6342 13.6319 12.9971 13.6319Z" stroke="#6E508E" stroke-width="2" stroke-linecap="round" stroke-linejoin="round"/>
<path d="M4.36914 25.4752V23.0385C4.36914 20.2052 6.66413 17.9102 9.49747 17.9102H17.1758C20.0091 17.9102 22.3041 20.2052 22.3041 23.0385V25.4752" stroke="#6E508E" stroke-width="2" stroke-linecap="round" stroke-linejoin="round"/>
<path d="M23.6782 14.8506C25.4308 14.8506 26.8515 13.4298 26.8515 11.6772C26.8515 9.92465 25.4308 8.50391 23.6782 8.50391C21.9256 8.50391 20.5049 9.92465 20.5049 11.6772C20.5049 13.4298 21.9256 14.8506 23.6782 14.8506Z" stroke="#6E508E" stroke-width="2" stroke-linecap="round" stroke-linejoin="round"/>
<path d="M24.585 18.0234H26.7666C28.8633 18.0234 30.5633 19.7234 30.5633 21.8201V23.6334" stroke="#6E508E" stroke-width="2" stroke-linecap="round" stroke-linejoin="round"/>
</g>
<defs>
<clipPath id="clip0_226_426">
<rect width="32.8417" height="32.8417" fill="white"/>
</clipPath>
</defs>
</svg>
