<svg width="28" height="28" viewBox="0 0 28 28" fill="none" xmlns="http://www.w3.org/2000/svg">
<path d="M5 18.1429V1.5C5 1.2643 5 1.14645 5.07322 1.07322C5.14645 1 5.2643 1 5.5 1H25.7332C26.2689 1 26.5367 1 26.5991 1.15822C26.6616 1.31643 26.466 1.49936 26.0747 1.86521L18.1458 9.27926C17.9994 9.41617 17.9262 9.48463 17.9262 9.57143C17.9262 9.65823 17.9994 9.72669 18.1458 9.8636L26.0747 17.2776C26.466 17.6435 26.6616 17.8264 26.5991 17.9846C26.5367 18.1429 26.2689 18.1429 25.7332 18.1429H5ZM5 18.1429V25" stroke="#F5BB5C" stroke-width="2" stroke-linecap="round"/>
</svg>
