<svg width="24" height="24" viewBox="0 0 24 24" fill="none" xmlns="http://www.w3.org/2000/svg">
<path d="M12 2C13.5 2 14.7016 2.0005 15.6787 2.07422C15.5644 2.3607 15.5 2.67271 15.5 3V3.5H15C13.6193 3.5 12.5 4.61929 12.5 6C12.5 7.38071 13.6193 8.5 15 8.5H15.5V9C15.5 10.3807 16.6193 11.5 18 11.5C18.8196 11.5 19.5441 11.1034 20 10.4941V14C20 17.7712 19.9997 19.6566 18.8281 20.8281C17.6566 21.9997 15.7712 22 12 22C8.22876 22 6.34345 21.9997 5.17188 20.8281C4.0003 19.6566 4 17.7712 4 14V10C4 6.22876 4.0003 4.34345 5.17188 3.17188C6.34345 2.0003 8.22876 2 12 2ZM8 17C7.44772 17 7 17.4477 7 18C7 18.5523 7.44772 19 8 19H12C12.5523 19 13 18.5523 13 18C13 17.4477 12.5523 17 12 17H8ZM8 14C7.44772 14 7 14.4477 7 15C7 15.5523 7.44772 16 8 16H14C14.5523 16 15 15.5523 15 15C15 14.4477 14.5523 14 14 14H8ZM8 11C7.44772 11 7 11.4477 7 12C7 12.5523 7.44772 13 8 13H12C12.5523 13 13 12.5523 13 12C13 11.4477 12.5523 11 12 11H8Z" fill="#707070"/>
<path d="M18 3L18 9" stroke="#707070" stroke-width="2" stroke-linecap="round"/>
<path d="M21 6L15 6" stroke="#707070" stroke-width="2" stroke-linecap="round"/>
</svg>
