<svg width="22" height="22" viewBox="0 0 22 22" fill="none" xmlns="http://www.w3.org/2000/svg">
<g clip-path="url(#clip0_1013_1686)">
<path d="M8.5024 8.89458C10.0481 8.89458 11.3012 7.64477 11.3012 6.10305C11.3012 4.56133 10.0481 3.31152 8.5024 3.31152C6.95667 3.31152 5.70361 4.56133 5.70361 6.10305C5.70361 7.64477 6.95667 8.89458 8.5024 8.89458Z" stroke="#6B7280" stroke-linecap="round" stroke-linejoin="round"/>
<path d="M2.8584 16.6225V15.0327C2.8584 13.184 4.35974 11.6865 6.21325 11.6865H11.2363C13.0898 11.6865 14.5911 13.184 14.5911 15.0327V16.6225" stroke="#6B7280" stroke-linecap="round" stroke-linejoin="round"/>
<path d="M15.49 9.68991C16.6365 9.68991 17.5659 8.76289 17.5659 7.61937C17.5659 6.47584 16.6365 5.54883 15.49 5.54883C14.3435 5.54883 13.4141 6.47584 13.4141 7.61937C13.4141 8.76289 14.3435 9.68991 15.49 9.68991Z" stroke="#6B7280" stroke-linecap="round" stroke-linejoin="round"/>
<path d="M16.083 11.7598H17.5102C18.8818 11.7598 19.9939 12.869 19.9939 14.237V15.4202" stroke="#6B7280" stroke-linecap="round" stroke-linejoin="round"/>
</g>
<defs>
<clipPath id="clip0_1013_1686">
<rect width="21.4844" height="21.4286" fill="white"/>
</clipPath>
</defs>
</svg>
