<svg width="33" height="33" viewBox="0 0 33 33" fill="none" xmlns="http://www.w3.org/2000/svg">
<g clip-path="url(#clip0_226_471)">
<path d="M12.9971 13.6327C15.3599 13.6327 17.2754 11.7172 17.2754 9.35435C17.2754 6.99149 15.3599 5.07602 12.9971 5.07602C10.6342 5.07602 8.71875 6.99149 8.71875 9.35435C8.71875 11.7172 10.6342 13.6327 12.9971 13.6327Z" stroke="#03CF65" stroke-width="2" stroke-linecap="round" stroke-linejoin="round"/>
<path d="M4.36914 25.4761V23.0394C4.36914 20.2061 6.66413 17.9111 9.49747 17.9111H17.1758C20.0091 17.9111 22.3041 20.2061 22.3041 23.0394V25.4761" stroke="#03CF65" stroke-width="2" stroke-linecap="round" stroke-linejoin="round"/>
<path d="M23.6782 14.8509C25.4308 14.8509 26.8515 13.4301 26.8515 11.6775C26.8515 9.92496 25.4308 8.50421 23.6782 8.50421C21.9256 8.50421 20.5049 9.92496 20.5049 11.6775C20.5049 13.4301 21.9256 14.8509 23.6782 14.8509Z" stroke="#03CF65" stroke-width="2" stroke-linecap="round" stroke-linejoin="round"/>
<path d="M24.585 18.0242H26.7666C28.8633 18.0242 30.5633 19.7242 30.5633 21.8208V23.6342" stroke="#03CF65" stroke-width="2" stroke-linecap="round" stroke-linejoin="round"/>
</g>
<defs>
<clipPath id="clip0_226_471">
<rect width="32.8417" height="32.8417" fill="white"/>
</clipPath>
</defs>
</svg>
