<svg width="16" height="12" viewBox="0 0 16 12" fill="none" xmlns="http://www.w3.org/2000/svg">
<path d="M7.92285 0C9.8602 0 11.2129 1.33552 11.2129 3.24902V8.75098C11.2129 10.6645 9.8602 12 7.92285 12H3.29004C1.35269 12 0 10.6645 0 8.75098V3.24902C0 1.33552 1.35269 0 3.29004 0H7.92285ZM14.3662 1.90332C14.7172 1.72487 15.1289 1.74316 15.4639 1.9541C15.799 2.16442 15.999 2.53017 15.999 2.92969V9.07031C15.999 9.47071 15.799 9.83554 15.4639 10.0459C15.2808 10.1603 15.0764 10.2187 14.8701 10.2188C14.6982 10.2188 14.5259 10.1786 14.3652 10.0967L13.1807 9.49902C12.7423 9.27649 12.4697 8.82925 12.4697 8.33301V3.66699C12.4697 3.16994 12.7423 2.72287 13.1807 2.50195L14.3662 1.90332Z" fill="#130F26"/>
</svg>
