<svg width="36" height="36" viewBox="0 0 36 36" fill="none" xmlns="http://www.w3.org/2000/svg">
<path d="M9.15118 0H8.18365C7.37738 0.0403135 6.32923 0.0806271 5.88578 0.201568C5.16013 0.362822 4.4748 0.56439 3.91041 0.846584C3.2654 1.16909 2.66069 1.61254 2.13662 2.13662C1.61254 2.66069 1.20941 3.22508 0.846585 3.91041C0.56439 4.4748 0.322508 5.16013 0.201568 5.84546C0.120941 6.32923 0.0403135 7.37738 0 8.18365V27.8163C0.0403135 28.6226 0.0806271 29.6708 0.201568 30.1142C0.362822 30.8399 0.56439 31.5252 0.846585 32.0896C1.16909 32.7346 1.61254 33.3393 2.13662 33.8634C2.66069 34.3875 3.22508 34.7906 3.91041 35.1534C4.4748 35.4356 5.16013 35.6775 5.84546 35.7984C6.32923 35.8791 7.37738 35.9597 8.18365 36H27.8163C28.6226 35.9597 29.6708 35.9194 30.1142 35.7984C30.8399 35.6372 31.5252 35.4356 32.0896 35.1534C32.7346 34.8309 33.3393 34.3875 33.8634 33.8634C34.3875 33.3393 34.7906 32.7749 35.1534 32.0896C35.4356 31.5252 35.6775 30.8399 35.7984 30.1545C35.8791 29.6708 35.9597 28.6226 36 27.8163V8.18365C35.9597 7.37738 35.9194 6.32923 35.7984 5.88578C35.6372 5.16013 35.4356 4.4748 35.1534 3.91041C34.8309 3.2654 34.3875 2.66069 33.8634 2.13662C33.3393 1.61254 32.7749 1.20941 32.0896 0.846584C31.5252 0.56439 30.8399 0.322508 30.1545 0.201568C29.6708 0.120941 28.6226 0.0403135 27.8163 0H9.15118Z" fill="url(#paint0_linear_1109_2511)"/>
<path d="M24.551 19.9145C24.2285 19.7532 22.616 18.9872 22.3338 18.8663C22.0516 18.7454 21.8097 18.7051 21.6081 19.0276C21.4065 19.3501 20.7615 20.0757 20.6003 20.2773C20.3987 20.4788 20.2375 20.5192 19.9149 20.3579C19.5924 20.1967 18.5443 19.8741 17.2946 18.7857C16.327 17.9391 15.682 16.8909 15.4805 16.5684C15.2789 16.2459 15.4805 16.0847 15.6417 15.9234C15.803 15.7622 15.9642 15.5606 16.1255 15.359C16.2867 15.1575 16.327 15.0365 16.448 14.8349C16.5689 14.6334 16.4883 14.4318 16.4077 14.2706C16.327 14.1093 15.682 12.5371 15.3998 11.8921C15.1176 11.2874 14.8758 11.368 14.6742 11.3277H14.0695C13.8679 11.3277 13.5051 11.4083 13.2229 11.7308C12.9407 12.0533 12.0941 12.8193 12.0941 14.3915C12.0941 15.9637 13.2632 17.4553 13.4245 17.6972C13.5857 17.8988 15.7223 21.1239 18.9474 22.4945C19.7134 22.817 20.3181 23.0186 20.8018 23.1799C21.5678 23.4217 22.2934 23.3814 22.8578 23.3008C23.4625 23.2202 24.7929 22.5348 25.0348 21.8092C25.317 21.0835 25.317 20.4385 25.2363 20.3176C25.0751 20.1563 24.8735 20.0757 24.551 19.9145ZM18.383 28.219C16.448 28.219 14.5936 27.695 12.9407 26.7274L12.5376 26.4856L8.50621 27.5337L9.59468 23.6233L9.3528 23.2202C8.30464 21.527 7.74025 19.5919 7.74025 17.5763C7.74025 11.7308 12.5376 6.97381 18.4233 6.97381C21.205 6.97381 23.906 8.06227 25.9217 10.078C27.9373 12.0936 29.0258 14.7543 29.0258 17.5763C29.0258 23.4217 24.2285 28.219 18.383 28.219ZM27.4536 8.54604C25.0348 6.12722 21.8097 4.79688 18.383 4.79688C11.3282 4.79688 5.56332 10.5214 5.56332 17.5763C5.56332 19.8338 6.16803 22.0108 7.25649 23.9458L5.44238 30.5572L12.2151 28.7834C14.0695 29.7913 16.2061 30.3557 18.3427 30.3557C25.3976 30.3557 31.1624 24.6311 31.1624 17.5763C31.2027 14.1899 29.8724 10.9648 27.4536 8.54604Z" fill="white"/>
<defs>
<linearGradient id="paint0_linear_1109_2511" x1="18.0121" y1="0.00806271" x2="18.0121" y2="35.9758" gradientUnits="userSpaceOnUse">
<stop stop-color="#62FA7F"/>
<stop offset="0.686" stop-color="#22CC40"/>
<stop offset="1" stop-color="#05B723"/>
</linearGradient>
</defs>
</svg>
