<svg xmlns="http://www.w3.org/2000/svg" viewBox="0 0 900 600"><rect fill="#ff0000" width="900" height="300"/><rect fill="#003478" y="300" width="900" height="300"/><polygon points="225,150 275,225 350,225 300,275 325,350 225,300 125,350 150,275 100,225 175,225" fill="#fff"/><polygon points="450,150 475,200 525,200 475,250 500,300 450,250 400,300 425,250 375,200 425,200" fill="#fff"/><polygon points="675,150 700,200 750,200 700,250 725,300 675,250 625,300 650,250 600,200 650,200" fill="#fff"/><polygon points="225,450 275,525 350,525 300,575 325,650 225,600 125,650 150,575 100,525 175,525" fill="#fff"/><polygon points="450,450 475,500 525,500 475,550 500,600 450,550 400,600 425,550 375,500 425,500" fill="#fff"/><polygon points="675,450 700,500 750,500 700,550 725,600 675,550 625,600 650,550 600,500 650,500" fill="#fff"/></svg>