<svg xmlns="http://www.w3.org/2000/svg" viewBox="0 0 900 600"><rect fill="#fff" width="900" height="300"/><rect fill="#ce1126" y="300" width="900" height="300"/><polygon points="225,150 275,225 350,225 300,275 325,350 225,300 125,350 150,275 100,225 175,225" fill="#fff"/><polygon points="450,150 475,200 525,200 475,250 500,300 450,250 400,300 425,250 375,200 425,200" fill="#fff"/><polygon points="675,150 700,200 750,200 700,250 725,300 675,250 625,300 650,250 600,200 650,200" fill="#fff"/></svg>