<svg width="28" height="28" viewBox="0 0 28 28" fill="none" xmlns="http://www.w3.org/2000/svg">
<path d="M3.49071 19.066C3.66226 19.4987 3.70045 19.9728 3.60038 20.4275L2.35788 24.2658C2.31784 24.4604 2.3282 24.6621 2.38795 24.8516C2.44771 25.0412 2.55489 25.2123 2.69932 25.3488C2.84376 25.4853 3.02067 25.5826 3.21328 25.6316C3.40588 25.6805 3.6078 25.6794 3.79988 25.6285L7.78171 24.4641C8.21071 24.379 8.655 24.4162 9.06388 24.5715C11.5552 25.7349 14.3773 25.981 17.0324 25.2665C19.6875 24.5519 22.0049 22.9226 23.5757 20.6659C25.1465 18.4092 25.8699 15.6703 25.6181 12.9323C25.3663 10.1943 24.1555 7.63317 22.1995 5.70086C20.2434 3.76854 17.6677 2.58917 14.9268 2.37084C12.186 2.15251 9.45604 2.90924 7.21873 4.50752C4.98142 6.1058 3.3805 8.44293 2.69842 11.1065C2.01634 13.7701 2.29694 16.5891 3.49071 19.066Z" stroke="#6E508E" stroke-width="2.33333" stroke-linecap="round" stroke-linejoin="round"/>
</svg>
