<svg width="24" height="24" viewBox="0 0 24 24" fill="none" xmlns="http://www.w3.org/2000/svg">
<path d="M3.5 9.72021H2V17.4302C2 19.2602 3.49 20.7502 5.31 20.7502H18.69C20.51 20.7502 22 19.2602 22 17.4302V9.72021H20.5H3.5ZM5.70999 11.8502H9.29001C9.71001 11.8502 10.04 12.1902 10.04 12.6002C10.04 13.0202 9.71001 13.3502 9.29001 13.3502H5.70999C5.28999 13.3502 4.95999 13.0202 4.95999 12.6002C4.95999 12.1902 5.28999 11.8502 5.70999 11.8502Z" fill="#6E508E"/>
<path d="M18.69 3.25H5.31C3.49 3.25 2 4.73 2 6.56V8.22H3.5H20.5H22V6.56C22 4.73 20.51 3.25 18.69 3.25Z" fill="#6E508E"/>
</svg>
