<svg width="22" height="23" viewBox="0 0 22 23" fill="none" xmlns="http://www.w3.org/2000/svg">
<path d="M18.6782 1.71143L19.1652 0.954549L19.1651 0.954493L18.6782 1.71143ZM20.0571 3.03955L20.7965 2.52644L20.7965 2.52637L20.0571 3.03955ZM20.8999 9.32275H21.7999H20.8999ZM20.0571 15.6069L20.7965 16.1201L20.7965 16.1201L20.0571 15.6069ZM18.6782 16.9351L19.1651 17.692L19.1652 17.6919L18.6782 16.9351ZM13.3999 17.7437L13.3961 16.8437C12.9005 16.8457 12.4999 17.2481 12.4999 17.7437H13.3999ZM13.3999 17.7466L14.1986 18.1614C14.2652 18.0332 14.2999 17.891 14.2999 17.7466H13.3999ZM11.7876 20.8511L12.5863 21.2659L12.5863 21.2659L11.7876 20.8511ZM10.0122 20.8511L9.2135 21.2659L9.21352 21.2659L10.0122 20.8511ZM8.3999 17.7466H7.4999C7.4999 17.891 7.53464 18.0332 7.60119 18.1614L8.3999 17.7466ZM8.3999 17.7437H9.2999C9.2999 17.2481 8.89926 16.8457 8.40368 16.8437L8.3999 17.7437ZM3.12158 16.9351L2.63463 17.6919L2.6347 17.692L3.12158 16.9351ZM1.74268 15.6069L1.00329 16.1201L1.00332 16.1201L1.74268 15.6069ZM0.899902 9.32275H-9.76324e-05H0.899902ZM1.74268 3.03955L1.00332 2.52637L1.00327 2.52644L1.74268 3.03955ZM3.12158 1.71143L2.6347 0.954493L2.63461 0.954549L3.12158 1.71143ZM12.1499 0.899902V1.7999C13.9235 1.7999 15.1886 1.801 16.17 1.89718C17.1382 1.99205 17.7312 2.1724 18.1913 2.46836L18.6782 1.71143L19.1651 0.954493C18.3641 0.43927 17.4486 0.213852 16.3456 0.10576C15.256 -0.00102216 13.8875 -9.76324e-05 12.1499 -9.76324e-05V0.899902ZM18.6782 1.71143L18.1913 2.4683C18.6389 2.75629 19.0212 3.12546 19.3178 3.55273L20.0571 3.03955L20.7965 2.52637C20.3637 1.90282 19.8091 1.36881 19.1652 0.954549L18.6782 1.71143ZM20.0571 3.03955L19.3177 3.55266C19.618 3.98538 19.802 4.54221 19.8994 5.46371C19.9986 6.40204 19.9999 7.6136 19.9999 9.32275H20.8999H21.7999C21.7999 7.65239 21.801 6.32932 21.6894 5.27442C21.5761 4.20269 21.3387 3.30768 20.7965 2.52644L20.0571 3.03955ZM20.8999 9.32275H19.9999C19.9999 11.0321 19.9987 12.2439 19.8995 13.1824C19.802 14.1042 19.618 14.6611 19.3177 15.0938L20.0571 15.6069L20.7965 16.1201C21.3388 15.3388 21.5762 14.4435 21.6895 13.3717C21.801 12.3166 21.7999 10.9933 21.7999 9.32275H20.8999ZM20.0571 15.6069L19.3178 15.0938C19.0212 15.5211 18.6389 15.8902 18.1913 16.1782L18.6782 16.9351L19.1652 17.6919C19.8091 17.2777 20.3637 16.7437 20.7965 16.1201L20.0571 15.6069ZM18.6782 16.9351L18.1913 16.1781C17.7897 16.4365 17.2858 16.6069 16.5189 16.7087C15.7389 16.8122 14.749 16.838 13.3961 16.8437L13.3999 17.7437L13.4037 18.6436C14.748 18.638 15.8464 18.6138 16.7558 18.493C17.6784 18.3705 18.465 18.1423 19.1651 17.692L18.6782 16.9351ZM13.3999 17.7437H12.4999V17.7466H13.3999H14.2999V17.7437H13.3999ZM13.3999 17.7466L12.6012 17.3318L10.9889 20.4363L11.7876 20.8511L12.5863 21.2659L14.1986 18.1614L13.3999 17.7466ZM11.7876 20.8511L10.9889 20.4362C10.9756 20.4618 10.9628 20.4715 10.9534 20.477C10.941 20.4842 10.9225 20.4901 10.8999 20.4901C10.8773 20.4901 10.8588 20.4842 10.8464 20.477C10.837 20.4715 10.8242 20.4618 10.8109 20.4362L10.0122 20.8511L9.21352 21.2659C9.92282 22.6316 11.877 22.6316 12.5863 21.2659L11.7876 20.8511ZM10.0122 20.8511L10.8109 20.4363L9.19861 17.3318L8.3999 17.7466L7.60119 18.1614L9.2135 21.2659L10.0122 20.8511ZM8.3999 17.7466H9.2999V17.7437H8.3999H7.4999V17.7466H8.3999ZM8.3999 17.7437L8.40368 16.8437C7.05083 16.838 6.06093 16.8122 5.28091 16.7087C4.51401 16.6069 4.0101 16.4365 3.60846 16.1781L3.12158 16.9351L2.6347 17.692C3.33476 18.1423 4.12145 18.3705 5.044 18.493C5.95343 18.6138 7.05185 18.638 8.39612 18.6436L8.3999 17.7437ZM3.12158 16.9351L3.60854 16.1782C3.16091 15.8902 2.77862 15.5211 2.48203 15.0938L1.74268 15.6069L1.00332 16.1201C1.43614 16.7437 1.9907 17.2777 2.63463 17.6919L3.12158 16.9351ZM1.74268 15.6069L2.48206 15.0938C2.18176 14.6611 1.99779 14.1042 1.90035 13.1824C1.80113 12.2439 1.7999 11.0321 1.7999 9.32275H0.899902H-9.76324e-05C-9.76324e-05 10.9933 -0.00121349 12.3166 0.110322 13.3717C0.223634 14.4436 0.461046 15.3388 1.00329 16.1201L1.74268 15.6069ZM0.899902 9.32275H1.7999C1.7999 7.6136 1.80116 6.40204 1.90039 5.46371C1.99783 4.54221 2.18179 3.98538 2.48208 3.55266L1.74268 3.03955L1.00327 2.52644C0.461124 3.30768 0.223699 4.20269 0.110367 5.27442C-0.0011856 6.32932 -9.76324e-05 7.65239 -9.76324e-05 9.32275H0.899902ZM1.74268 3.03955L2.48203 3.55273C2.7786 3.12546 3.16094 2.75629 3.60855 2.4683L3.12158 1.71143L2.63461 0.954549C1.99074 1.36881 1.43612 1.90282 1.00332 2.52637L1.74268 3.03955ZM3.12158 1.71143L3.60846 2.46836C4.06858 2.1724 4.66165 1.99205 5.62976 1.89718C6.61122 1.801 7.87633 1.7999 9.6499 1.7999V0.899902V-9.76324e-05C7.91232 -9.76324e-05 6.54383 -0.00102216 5.4542 0.10576C4.35121 0.213852 3.4357 0.43927 2.6347 0.954493L3.12158 1.71143ZM9.6499 0.899902V1.7999H12.1499V0.899902V-9.76324e-05H9.6499V0.899902Z" fill="#9CA3AF"/>
<path d="M6.8999 9.8999H14.8999" stroke="#9CA3AF" stroke-width="1.4" stroke-linecap="round" stroke-linejoin="round"/>
<path d="M10.8999 5.8999V13.8999" stroke="#9CA3AF" stroke-width="1.4" stroke-linecap="round" stroke-linejoin="round"/>
</svg>
