<svg width="25" height="25" viewBox="0 0 25 25" fill="none" xmlns="http://www.w3.org/2000/svg">
<path d="M11.4583 6.25C14.6264 6.33161 17.7228 5.29948 20.2083 3.33333C20.3631 3.21726 20.5471 3.14658 20.7398 3.12921C20.9325 3.11184 21.1262 3.14846 21.2992 3.23497C21.4722 3.32149 21.6177 3.45447 21.7194 3.61903C21.8211 3.78359 21.875 3.97322 21.875 4.16667V16.6667C21.875 16.8601 21.8211 17.0497 21.7194 17.2143C21.6177 17.3789 21.4722 17.5118 21.2992 17.5984C21.1262 17.6849 20.9325 17.7215 20.7398 17.7041C20.5471 17.6868 20.3631 17.6161 20.2083 17.5C17.7228 15.5338 14.6264 14.5017 11.4583 14.5833H5.20833C4.6558 14.5833 4.12589 14.3638 3.73519 13.9731C3.34449 13.5824 3.125 13.0525 3.125 12.5V8.33333C3.125 7.7808 3.34449 7.2509 3.73519 6.86019C4.12589 6.46949 4.6558 6.25 5.20833 6.25H11.4583Z" stroke="#6E508E" stroke-width="2" stroke-linecap="round" stroke-linejoin="round"/>
<path d="M6.25 14.583C6.25 17.2876 7.12722 19.9193 8.75 22.083C9.08152 22.525 9.57506 22.8173 10.122 22.8954C10.669 22.9735 11.2246 22.8312 11.6667 22.4997C12.1087 22.1682 12.4009 21.6746 12.4791 21.1276C12.5572 20.5807 12.4149 20.025 12.0833 19.583C11.0015 18.1405 10.4167 16.3861 10.4167 14.583" stroke="#6E508E" stroke-width="2" stroke-linecap="round" stroke-linejoin="round"/>
<path d="M8.3335 6.25V14.5833" stroke="#6E508E" stroke-width="2" stroke-linecap="round" stroke-linejoin="round"/>
</svg>
