<svg width="13" height="13" viewBox="0 0 13 13" fill="none" xmlns="http://www.w3.org/2000/svg">
<circle cx="6.5" cy="6.5" r="6.1" stroke="black" stroke-width="0.8"/>
<path d="M4.682 6.858C4.906 6.898 5.096 7.016 5.252 7.212C5.408 7.408 5.486 7.63 5.486 7.878C5.486 8.09 5.43 8.282 5.318 8.454C5.21 8.622 5.052 8.756 4.844 8.856C4.636 8.952 4.394 9 4.118 9H2.45V4.83H4.04C4.324 4.83 4.568 4.878 4.772 4.974C4.976 5.07 5.13 5.2 5.234 5.364C5.338 5.524 5.39 5.704 5.39 5.904C5.39 6.144 5.326 6.344 5.198 6.504C5.07 6.664 4.898 6.782 4.682 6.858ZM3.134 6.582H3.98C4.204 6.582 4.378 6.532 4.502 6.432C4.63 6.328 4.694 6.18 4.694 5.988C4.694 5.8 4.63 5.654 4.502 5.55C4.378 5.442 4.204 5.388 3.98 5.388H3.134V6.582ZM4.058 8.442C4.29 8.442 4.472 8.386 4.604 8.274C4.736 8.162 4.802 8.006 4.802 7.806C4.802 7.602 4.732 7.44 4.592 7.32C4.452 7.2 4.266 7.14 4.034 7.14H3.134V8.442H4.058ZM6.5773 5.256C6.4533 5.256 6.3493 5.214 6.2653 5.13C6.1813 5.046 6.1393 4.942 6.1393 4.818C6.1393 4.694 6.1813 4.59 6.2653 4.506C6.3493 4.422 6.4533 4.38 6.5773 4.38C6.6973 4.38 6.7993 4.422 6.8833 4.506C6.9673 4.59 7.0093 4.694 7.0093 4.818C7.0093 4.942 6.9673 5.046 6.8833 5.13C6.7993 5.214 6.6973 5.256 6.5773 5.256ZM6.9133 5.694V9H6.2293V5.694H6.9133ZM9.24533 9.054C8.93333 9.054 8.65133 8.984 8.39933 8.844C8.14733 8.7 7.94933 8.5 7.80533 8.244C7.66133 7.984 7.58933 7.684 7.58933 7.344C7.58933 7.008 7.66333 6.71 7.81133 6.45C7.95933 6.19 8.16133 5.99 8.41733 5.85C8.67333 5.71 8.95933 5.64 9.27533 5.64C9.59133 5.64 9.87733 5.71 10.1333 5.85C10.3893 5.99 10.5913 6.19 10.7393 6.45C10.8873 6.71 10.9613 7.008 10.9613 7.344C10.9613 7.68 10.8853 7.978 10.7333 8.238C10.5813 8.498 10.3733 8.7 10.1093 8.844C9.84933 8.984 9.56133 9.054 9.24533 9.054ZM9.24533 8.46C9.42133 8.46 9.58533 8.418 9.73733 8.334C9.89333 8.25 10.0193 8.124 10.1153 7.956C10.2113 7.788 10.2593 7.584 10.2593 7.344C10.2593 7.104 10.2133 6.902 10.1213 6.738C10.0293 6.57 9.90733 6.444 9.75533 6.36C9.60333 6.276 9.43933 6.234 9.26333 6.234C9.08733 6.234 8.92333 6.276 8.77133 6.36C8.62333 6.444 8.50533 6.57 8.41733 6.738C8.32933 6.902 8.28533 7.104 8.28533 7.344C8.28533 7.7 8.37533 7.976 8.55533 8.172C8.73933 8.364 8.96933 8.46 9.24533 8.46Z" fill="black"/>
</svg>
