<svg width="20" height="20" viewBox="0 0 20 20" fill="none" xmlns="http://www.w3.org/2000/svg">
<rect width="20" height="20" rx="10" fill="#6E508E"/>
<g clip-path="url(#clip0_768_1875)">
<path d="M9.50872 5.40722C9.53014 5.29252 9.59101 5.18893 9.68077 5.11438C9.77053 5.03983 9.88354 4.99902 10.0002 4.99902C10.1169 4.99902 10.2299 5.03983 10.3197 5.11438C10.4094 5.18893 10.4703 5.29252 10.4917 5.40722L11.0172 8.18622C11.0545 8.38379 11.1506 8.56553 11.2927 8.70771C11.4349 8.84988 11.6166 8.9459 11.8142 8.98322L14.5932 9.50872C14.7079 9.53014 14.8115 9.59101 14.8861 9.68077C14.9606 9.77053 15.0014 9.88354 15.0014 10.0002C15.0014 10.1169 14.9606 10.2299 14.8861 10.3197C14.8115 10.4094 14.7079 10.4703 14.5932 10.4917L11.8142 11.0172C11.6166 11.0545 11.4349 11.1506 11.2927 11.2927C11.1506 11.4349 11.0545 11.6166 11.0172 11.8142L10.4917 14.5932C10.4703 14.7079 10.4094 14.8115 10.3197 14.8861C10.2299 14.9606 10.1169 15.0014 10.0002 15.0014C9.88354 15.0014 9.77053 14.9606 9.68077 14.8861C9.59101 14.8115 9.53014 14.7079 9.50872 14.5932L8.98322 11.8142C8.9459 11.6166 8.84988 11.4349 8.70771 11.2927C8.56553 11.1506 8.38379 11.0545 8.18622 11.0172L5.40722 10.4917C5.29252 10.4703 5.18893 10.4094 5.11438 10.3197C5.03983 10.2299 4.99902 10.1169 4.99902 10.0002C4.99902 9.88354 5.03983 9.77053 5.11438 9.68077C5.18893 9.59101 5.29252 9.53014 5.40722 9.50872L8.18622 8.98322C8.38379 8.9459 8.56553 8.84988 8.70771 8.70771C8.84988 8.56553 8.9459 8.38379 8.98322 8.18622L9.50872 5.40722Z" stroke="white" stroke-linecap="round" stroke-linejoin="round"/>
<path d="M14 5V7" stroke="white" stroke-linecap="round" stroke-linejoin="round"/>
<path d="M15 6H13" stroke="white" stroke-linecap="round" stroke-linejoin="round"/>
<path d="M6 15C6.55228 15 7 14.5523 7 14C7 13.4477 6.55228 13 6 13C5.44772 13 5 13.4477 5 14C5 14.5523 5.44772 15 6 15Z" stroke="white" stroke-linecap="round" stroke-linejoin="round"/>
</g>
<defs>
<clipPath id="clip0_768_1875">
<rect width="12" height="12" fill="white" transform="translate(4 4)"/>
</clipPath>
</defs>
</svg>
