<svg width="18" height="17" viewBox="0 0 18 17" fill="none" xmlns="http://www.w3.org/2000/svg">
<g clip-path="url(#clip0_101_47)">
<path d="M0 5.3125V3.1875C0 2.90571 0.135459 2.63546 0.376577 2.4362C0.617695 2.23694 0.944722 2.125 1.28571 2.125H2.57143V1.0625C2.57143 0.780707 2.70689 0.510456 2.94801 0.311199C3.18912 0.111942 3.51615 0 3.85714 0C4.19814 0 4.52516 0.111942 4.76628 0.311199C5.0074 0.510456 5.14286 0.780707 5.14286 1.0625V2.125H12.8571V1.0625C12.8571 0.780707 12.9926 0.510456 13.2337 0.311199C13.4748 0.111942 13.8019 0 14.1429 0C14.4838 0 14.8109 0.111942 15.052 0.311199C15.2931 0.510456 15.4286 0.780707 15.4286 1.0625V2.125H16.7143C17.0553 2.125 17.3823 2.23694 17.6234 2.4362C17.8645 2.63546 18 2.90571 18 3.1875V5.3125H0ZM0 6.375V15.9375C0 16.2193 0.135459 16.4895 0.376577 16.6888C0.617695 16.8881 0.944722 17 1.28571 17H16.7143C17.0553 17 17.3823 16.8881 17.6234 16.6888C17.8645 16.4895 18 16.2193 18 15.9375V6.375H0Z" fill="white"/>
</g>
<defs>
<clipPath id="clip0_101_47">
<rect width="18" height="17" fill="white"/>
</clipPath>
</defs>
</svg>
