<svg width="20" height="15" viewBox="0 0 20 15" fill="none" xmlns="http://www.w3.org/2000/svg">
<path d="M9.90527 0C12.3271 8.0171e-05 14.0184 1.66892 14.0186 4.06055V10.9395C14.0184 13.3311 12.3271 14.9999 9.90527 15H4.11328C1.69138 15 0.000173044 13.3311 0 10.9395V4.06055C0.00017282 1.66886 1.69138 0 4.11328 0H9.90527ZM17.958 2.37891C18.397 2.15559 18.9121 2.17941 19.3311 2.44336C19.7499 2.7063 20 3.16276 20 3.66211V11.3379C20 11.8384 19.75 12.2947 19.3311 12.5576C19.1021 12.7008 18.8459 12.7734 18.5879 12.7734C18.373 12.7734 18.1579 12.7235 17.957 12.6211L16.4756 11.873C15.928 11.5949 15.5881 11.037 15.5879 10.417V4.58301C15.5879 3.96178 15.9277 3.40312 16.4756 3.12695L17.958 2.37891Z" fill="#05B723"/>
<path d="M3 7H11" stroke="white" stroke-width="2" stroke-linecap="round" stroke-linejoin="round"/>
<path d="M7 3V11" stroke="white" stroke-width="2" stroke-linecap="round" stroke-linejoin="round"/>
</svg>
