<svg width="14" height="19" viewBox="0 0 14 19" fill="none" xmlns="http://www.w3.org/2000/svg">
<path d="M2 3C2.55228 3 3 2.55228 3 2C3 1.44772 2.55228 1 2 1C1.44772 1 1 1.44772 1 2C1 2.55228 1.44772 3 2 3Z" stroke="#05B723" stroke-width="2" stroke-linecap="round" stroke-linejoin="round"/>
<path d="M7 3C7.55228 3 8 2.55228 8 2C8 1.44772 7.55228 1 7 1C6.44772 1 6 1.44772 6 2C6 2.55228 6.44772 3 7 3Z" stroke="#05B723" stroke-width="2" stroke-linecap="round" stroke-linejoin="round"/>
<path d="M12 3C12.5523 3 13 2.55228 13 2C13 1.44772 12.5523 1 12 1C11.4477 1 11 1.44772 11 2C11 2.55228 11.4477 3 12 3Z" stroke="#05B723" stroke-width="2" stroke-linecap="round" stroke-linejoin="round"/>
<path d="M2 8C2.55228 8 3 7.55228 3 7C3 6.44772 2.55228 6 2 6C1.44772 6 1 6.44772 1 7C1 7.55228 1.44772 8 2 8Z" stroke="#05B723" stroke-width="2" stroke-linecap="round" stroke-linejoin="round"/>
<path d="M7 8C7.55228 8 8 7.55228 8 7C8 6.44772 7.55228 6 7 6C6.44772 6 6 6.44772 6 7C6 7.55228 6.44772 8 7 8Z" stroke="#05B723" stroke-width="2" stroke-linecap="round" stroke-linejoin="round"/>
<path d="M12 8C12.5523 8 13 7.55228 13 7C13 6.44772 12.5523 6 12 6C11.4477 6 11 6.44772 11 7C11 7.55228 11.4477 8 12 8Z" stroke="#05B723" stroke-width="2" stroke-linecap="round" stroke-linejoin="round"/>
<path d="M2 13C2.55228 13 3 12.5523 3 12C3 11.4477 2.55228 11 2 11C1.44772 11 1 11.4477 1 12C1 12.5523 1.44772 13 2 13Z" stroke="#05B723" stroke-width="2" stroke-linecap="round" stroke-linejoin="round"/>
<path d="M7 13C7.55228 13 8 12.5523 8 12C8 11.4477 7.55228 11 7 11C6.44772 11 6 11.4477 6 12C6 12.5523 6.44772 13 7 13Z" stroke="#05B723" stroke-width="2" stroke-linecap="round" stroke-linejoin="round"/>
<path d="M7 18C7.55228 18 8 17.5523 8 17C8 16.4477 7.55228 16 7 16C6.44772 16 6 16.4477 6 17C6 17.5523 6.44772 18 7 18Z" stroke="#05B723" stroke-width="2" stroke-linecap="round" stroke-linejoin="round"/>
<path d="M12 13C12.5523 13 13 12.5523 13 12C13 11.4477 12.5523 11 12 11C11.4477 11 11 11.4477 11 12C11 12.5523 11.4477 13 12 13Z" stroke="#05B723" stroke-width="2" stroke-linecap="round" stroke-linejoin="round"/>
</svg>
