<svg width="10" height="10" viewBox="0 0 10 10" fill="none" xmlns="http://www.w3.org/2000/svg">
<path d="M9.45 6.87778C8.76667 6.87778 8.10556 6.76667 7.48889 6.56667C7.29444 6.5 7.07778 6.55 6.92778 6.7L6.05556 7.79445C4.48333 7.04445 3.01111 5.62778 2.22778 4L3.31111 3.07778C3.46111 2.92222 3.50556 2.70556 3.44444 2.51111C3.23889 1.89444 3.13333 1.23333 3.13333 0.55C3.13333 0.25 2.88333 0 2.58333 0H0.661111C0.361111 0 0 0.133333 0 0.55C0 5.71111 4.29445 10 9.45 10C9.84445 10 10 9.65 10 9.34444V7.42778C10 7.12778 9.75 6.87778 9.45 6.87778Z" fill="#707070"/>
<path d="M9.00223 3.08125L8.91425 1.07624M8.91425 1.07624L6.91275 0.928554M8.91425 1.07624L6.04399 3.86221" stroke="#707070" stroke-linecap="round"/>
</svg>
