<svg width="40" height="40" viewBox="0 0 40 40" fill="none" xmlns="http://www.w3.org/2000/svg">
<g clip-path="url(#clip0_372_2379)">
<path d="M34 3.38867L35.0437 1.6826L35.0437 1.68258L34 3.38867ZM36.4834 5.66211L38.0989 4.48312L38.0989 4.48309L36.4834 5.66211ZM38 16.4199H40H38ZM36.4834 27.1777L38.0989 28.3568L38.099 28.3567L36.4834 27.1777ZM34 29.4512L35.0437 31.1572V31.1572L34 29.4512ZM24.5 30.8359L24.492 28.836C23.3906 28.8404 22.5 29.7345 22.5 30.8359H24.5ZM24.5 30.8398L26.2553 31.7984C26.4159 31.5044 26.5 31.1748 26.5 30.8398H24.5ZM20.8779 37.4727L22.6331 38.4315L22.6333 38.4312L20.8779 37.4727ZM19.1221 37.4727L17.3667 38.4312L17.3669 38.4315L19.1221 37.4727ZM15.5 30.8398H13.5C13.5 31.1748 13.5841 31.5044 13.7447 31.7984L15.5 30.8398ZM15.5 30.8359H17.5C17.5 29.7345 16.6094 28.8404 15.508 28.836L15.5 30.8359ZM6 29.4512L4.9563 31.1572V31.1572L6 29.4512ZM3.5166 27.1777L1.90102 28.3567L1.90108 28.3568L3.5166 27.1777ZM2 16.4199H0H2ZM3.5166 5.66211L1.90108 4.48309L1.90106 4.48312L3.5166 5.66211ZM6 3.38867L4.95633 1.68258L4.9563 1.6826L6 3.38867ZM22.25 2V4C25.4481 4 27.7088 4.00204 29.4583 4.16498C31.1823 4.32556 32.1933 4.628 32.9563 5.09477L34 3.38867L35.0437 1.68258C33.5367 0.760711 31.8327 0.368821 29.8292 0.182219C27.8511 -0.00201964 25.3718 0 22.25 0V2ZM34 3.38867L32.9563 5.09475C33.7238 5.56424 34.371 6.16026 34.8679 6.84113L36.4834 5.66211L38.0989 4.48309C37.2826 3.3645 36.2417 2.41546 35.0437 1.6826L34 3.38867ZM36.4834 5.66211L34.8679 6.8411C35.3403 7.48844 35.653 8.34413 35.8227 9.87136C35.9971 11.4418 36 13.4814 36 16.4199H38H40C40 13.5722 40.0029 11.2721 39.7982 9.42972C39.5888 7.54418 39.1432 5.91409 38.0989 4.48312L36.4834 5.66211ZM38 16.4199H36C36 19.3584 35.9971 21.398 35.8227 22.9684C35.653 24.4957 35.3402 25.3514 34.8678 25.9988L36.4834 27.1777L38.099 28.3567C39.1432 26.9257 39.5887 25.2956 39.7982 23.4101C40.0029 21.5677 40 19.2676 40 16.4199H38ZM36.4834 27.1777L34.8679 25.9987C34.371 26.6796 33.7238 27.2756 32.9563 27.7451L34 29.4512L35.0437 31.1572C36.2417 30.4244 37.2826 29.4753 38.0989 28.3568L36.4834 27.1777ZM34 29.4512L32.9563 27.7451C32.2908 28.1522 31.4338 28.4354 30.0762 28.607C28.6929 28.7818 26.9285 28.8262 24.492 28.836L24.5 30.8359L24.508 32.8359C26.9264 32.8263 28.9204 32.7849 30.5777 32.5754C32.2606 32.3627 33.7261 31.9633 35.0437 31.1572L34 29.4512ZM24.5 30.8359H22.5V30.8398H24.5H26.5V30.8359H24.5ZM24.5 30.8398L22.7447 29.8813L19.1226 36.5141L20.8779 37.4727L22.6333 38.4312L26.2553 31.7984L24.5 30.8398ZM20.8779 37.4727L19.1227 36.5139C19.5019 35.8197 20.4981 35.8197 20.8773 36.5139L19.1221 37.4727L17.3669 38.4315C18.5044 40.5139 21.4956 40.5138 22.6331 38.4315L20.8779 37.4727ZM19.1221 37.4727L20.8774 36.5141L17.2553 29.8813L15.5 30.8398L13.7447 31.7984L17.3667 38.4312L19.1221 37.4727ZM15.5 30.8398H17.5V30.8359H15.5H13.5V30.8398H15.5ZM15.5 30.8359L15.508 28.836C13.0715 28.8262 11.3071 28.7818 9.92384 28.607C8.56625 28.4354 7.70916 28.1522 7.0437 27.7451L6 29.4512L4.9563 31.1572C6.27388 31.9633 7.73938 32.3627 9.42232 32.5754C11.0796 32.7849 13.0736 32.8263 15.492 32.8359L15.5 30.8359ZM6 29.4512L7.0437 27.7451C6.27624 27.2756 5.62903 26.6796 5.13213 25.9987L3.5166 27.1777L1.90108 28.3568C2.71743 29.4753 3.75834 30.4244 4.9563 31.1572L6 29.4512ZM3.5166 27.1777L5.13218 25.9988C4.65979 25.3514 4.34702 24.4957 4.17735 22.9684C4.00288 21.398 4 19.3584 4 16.4199H2H0C0 19.2676 -0.00287747 21.5677 0.201805 23.4101C0.411281 25.2956 0.856814 26.9257 1.90102 28.3567L3.5166 27.1777ZM2 16.4199H4C4 13.4814 4.00285 11.4418 4.17731 9.87136C4.34697 8.34413 4.65973 7.48844 5.13215 6.8411L3.5166 5.66211L1.90106 4.48312C0.856766 5.91409 0.411229 7.54418 0.201765 9.42972C-0.0029037 11.2721 0 13.5722 0 16.4199H2ZM3.5166 5.66211L5.13213 6.84113C5.62903 6.16026 6.27624 5.56424 7.0437 5.09475L6 3.38867L4.9563 1.6826C3.75834 2.41546 2.71743 3.3645 1.90108 4.48309L3.5166 5.66211ZM6 3.38867L7.04367 5.09477C7.80669 4.628 8.8177 4.32556 10.5417 4.16498C12.2912 4.00204 14.5519 4 17.75 4V2V0C14.6282 0 12.1489 -0.00201941 10.1708 0.182219C8.16731 0.368821 6.46331 0.760711 4.95633 1.68258L6 3.38867ZM17.75 2V4H22.25V2V0H17.75V2Z" fill="#6E508E"/>
</g>
<defs>
<clipPath id="clip0_372_2379">
<rect width="40" height="40" fill="white"/>
</clipPath>
</defs>
</svg>
