<svg width="28" height="28" viewBox="0 0 28 28" fill="none" xmlns="http://www.w3.org/2000/svg">
<path d="M23.3327 12.6665C23.3327 8.89527 23.3327 7.00965 22.1611 5.83808C20.9895 4.6665 19.1039 4.6665 15.3327 4.6665H12.666C8.89478 4.6665 7.00916 4.6665 5.83759 5.83808C4.66602 7.00965 4.66602 8.89527 4.66602 12.6665V21.3332C4.66602 22.276 4.66602 22.7474 4.95891 23.0403C5.2518 23.3332 5.72321 23.3332 6.66602 23.3332H15.3327C19.1039 23.3332 20.9895 23.3332 22.1611 22.1616C23.3327 20.99 23.3327 19.1044 23.3327 15.3332V12.6665Z" stroke="#707070" stroke-width="2"/>
<path d="M10.5 11.6665L17.5 11.6665" stroke="#707070" stroke-width="2" stroke-linecap="round" stroke-linejoin="round"/>
<path d="M10.5 16.3335H14" stroke="#707070" stroke-width="2" stroke-linecap="round" stroke-linejoin="round"/>
</svg>
