<svg width="44" height="44" viewBox="0 0 44 44" fill="none" xmlns="http://www.w3.org/2000/svg">
<path d="M6.41664 37.5832C7.93831 39.1049 10.395 39.1049 11.9166 37.5832L35.75 13.7499C37.2716 12.2282 37.2716 9.77156 35.75 8.24989C34.2283 6.72823 31.7716 6.72823 30.25 8.24989L6.41664 32.0832C4.89497 33.6049 4.89497 36.0616 6.41664 37.5832Z" stroke="white" stroke-width="2.5" stroke-linecap="round" stroke-linejoin="round"/>
<path d="M33.0176 16.4817L27.5176 10.9817" stroke="white" stroke-width="2.5" stroke-linecap="round" stroke-linejoin="round"/>
<path d="M15.584 4.47341L18.334 3.66675L17.5273 6.41675L18.334 9.16675L15.584 8.36008L12.834 9.16675L13.6407 6.41675L12.834 3.66675L15.584 4.47341Z" stroke="white" stroke-width="2" stroke-linecap="round" stroke-linejoin="round"/>
<path d="M8.25 15.4732L11 14.6665L10.1933 17.4165L11 20.1665L8.25 19.3598L5.5 20.1665L6.30667 17.4165L5.5 14.6665L8.25 15.4732Z" stroke="white" stroke-width="2" stroke-linecap="round" stroke-linejoin="round"/>
<path d="M35.75 24.6402L38.5 23.8335L37.6933 26.5835L38.5 29.3335L35.75 28.5268L33 29.3335L33.8067 26.5835L33 23.8335L35.75 24.6402Z" stroke="white" stroke-width="2" stroke-linecap="round" stroke-linejoin="round"/>
</svg>
