<svg width="10" height="10" viewBox="0 0 10 10" fill="none" xmlns="http://www.w3.org/2000/svg">
<g clip-path="url(#clip0_613_816)">
<path d="M7.78978 1.5625C7.62293 1.56289 7.45781 1.59493 7.30396 1.65678C7.1501 1.71864 7.01054 1.80908 6.89334 1.92288L2.01535 6.59748L1.99622 6.69001L1.65875 8.31601L1.5625 8.75L2.01566 8.65776L3.71229 8.33434L3.80854 8.31571L8.68653 3.64112C8.80559 3.52899 8.90015 3.39526 8.9647 3.24773C9.02926 3.1002 9.0625 2.94183 9.0625 2.78185C9.0625 2.62188 9.02926 2.4635 8.9647 2.31597C8.90015 2.16844 8.80559 2.03471 8.68653 1.92258C8.56926 1.8088 8.42964 1.71839 8.27573 1.65659C8.12182 1.59479 7.95665 1.56281 7.78978 1.5625ZM7.78978 2.12598C7.94525 2.12598 8.10196 2.19398 8.2525 2.33854C8.55265 2.6259 8.55265 2.9378 8.2525 3.22545L8.03101 3.42855L7.11482 2.55081L7.32706 2.33854C7.4779 2.19398 7.6343 2.12598 7.78978 2.12598ZM6.68141 2.96677L7.59698 3.84451L3.86653 7.41934C3.66514 7.04172 3.34452 6.73465 2.95035 6.5419L6.68141 2.96677ZM2.5555 7.0226C2.73807 7.09299 2.90391 7.19802 3.04306 7.33138C3.18221 7.46474 3.2918 7.62367 3.36525 7.79864L2.35282 7.99258L2.5555 7.0226Z" fill="#111827"/>
<path d="M2.5555 7.0226C2.73807 7.09299 2.90391 7.19802 3.04306 7.33138C3.18221 7.46474 3.2918 7.62367 3.36525 7.79864L2.35282 7.99258L2.5555 7.0226Z" fill="#111827"/>
<path d="M7.78978 2.12598C7.94525 2.12598 8.10196 2.19398 8.2525 2.33854C8.55265 2.6259 8.55265 2.9378 8.2525 3.22545L8.03101 3.42855L7.11482 2.55081L7.32706 2.33854C7.4779 2.19398 7.6343 2.12598 7.78978 2.12598Z" fill="#111827"/>
</g>
<defs>
<clipPath id="clip0_613_816">
<rect width="10" height="10" fill="white"/>
</clipPath>
</defs>
</svg>
