<svg width="15" height="15" viewBox="0 0 15 15" fill="none" xmlns="http://www.w3.org/2000/svg">
<g clip-path="url(#clip0_759_1378)">
<path d="M13.125 0H1.875C0.840937 0 0 0.840937 0 1.875V13.125C0 14.1591 0.840937 15 1.875 15H13.125C14.1591 15 15 14.1591 15 13.125V1.875C15 0.840937 14.1591 0 13.125 0Z" fill="#111827"/>
<path fill-rule="evenodd" clip-rule="evenodd" d="M12.6563 7.5H10.3125V5.625C10.3125 5.1075 10.7325 5.15625 11.25 5.15625H12.1875V2.8125H10.3125C9.56658 2.8125 8.85121 3.10882 8.32376 3.63626C7.79632 4.16371 7.5 4.87908 7.5 5.625V7.5H5.625V9.84375H7.5V15H10.3125V9.84375H11.7188L12.6563 7.5Z" fill="#FAFAFA"/>
</g>
<defs>
<clipPath id="clip0_759_1378">
<rect width="15" height="15" fill="white"/>
</clipPath>
</defs>
</svg>
