<svg width="15" height="15" viewBox="0 0 15 15" fill="none" xmlns="http://www.w3.org/2000/svg">
<path d="M3.81299 0H3.40985C3.07391 0.0167973 2.63718 0.0335946 2.45241 0.0839866C2.15006 0.151176 1.8645 0.235162 1.62934 0.352744C1.36058 0.487122 1.10862 0.671893 0.890258 0.890258C0.671893 1.10862 0.503919 1.34378 0.352744 1.62934C0.235162 1.8645 0.134378 2.15006 0.0839866 2.43561C0.0503919 2.63718 0.0167973 3.07391 0 3.40985V11.5901C0.0167973 11.9261 0.0335946 12.3628 0.0839866 12.5476C0.151176 12.8499 0.235162 13.1355 0.352744 13.3707C0.487122 13.6394 0.671893 13.8914 0.890258 14.1097C1.10862 14.3281 1.34378 14.4961 1.62934 14.6473C1.8645 14.7648 2.15006 14.8656 2.43561 14.916C2.63718 14.9496 3.07391 14.9832 3.40985 15H11.5901C11.9261 14.9832 12.3628 14.9664 12.5476 14.916C12.8499 14.8488 13.1355 14.7648 13.3707 14.6473C13.6394 14.5129 13.8914 14.3281 14.1097 14.1097C14.3281 13.8914 14.4961 13.6562 14.6473 13.3707C14.7648 13.1355 14.8656 12.8499 14.916 12.5644C14.9496 12.3628 14.9832 11.9261 15 11.5901V3.40985C14.9832 3.07391 14.9664 2.63718 14.916 2.45241C14.8488 2.15006 14.7648 1.8645 14.6473 1.62934C14.5129 1.36058 14.3281 1.10862 14.1097 0.890258C13.8914 0.671893 13.6562 0.503919 13.3707 0.352744C13.1355 0.235162 12.8499 0.134378 12.5644 0.0839866C12.3628 0.0503919 11.9261 0.0167973 11.5901 0H3.81299Z" fill="#111827"/>
<path d="M10.2296 8.29802C10.0952 8.23083 9.42335 7.91168 9.30577 7.86129C9.18819 7.81089 9.08741 7.7941 9.00342 7.92848C8.91943 8.06285 8.65068 8.36521 8.58349 8.44919C8.4995 8.53318 8.43231 8.54998 8.29793 8.48279C8.16356 8.4156 7.72683 8.28122 7.20611 7.82769C6.80297 7.47495 6.53422 7.03822 6.45023 6.90384C6.36624 6.76946 6.45023 6.70227 6.51742 6.63508C6.58461 6.56789 6.6518 6.48391 6.71899 6.39992C6.78618 6.31593 6.80297 6.26554 6.85337 6.18155C6.90376 6.09757 6.87016 6.01358 6.83657 5.94639C6.80297 5.8792 6.53422 5.22411 6.41664 4.95535C6.29905 4.70339 6.19827 4.73699 6.11428 4.72019H5.86232C5.77834 4.72019 5.62716 4.75378 5.50958 4.88816C5.392 5.02254 5.03926 5.34169 5.03926 5.99678C5.03926 6.65188 5.52638 7.27338 5.59357 7.37416C5.66076 7.45815 6.55101 8.80194 7.8948 9.37304C8.21395 9.50742 8.46591 9.59141 8.66748 9.6586C8.98662 9.75938 9.28898 9.74259 9.52414 9.70899C9.7761 9.6754 10.3304 9.38984 10.4312 9.08749C10.5488 8.78514 10.5488 8.51638 10.5152 8.46599C10.448 8.3988 10.364 8.36521 10.2296 8.29802ZM7.65964 11.7583C6.85337 11.7583 6.08069 11.5399 5.392 11.1368L5.22403 11.036L3.5443 11.4727L3.99782 9.84337L3.89704 9.6754C3.46031 8.96991 3.22515 8.16364 3.22515 7.32377C3.22515 4.88816 5.22403 2.90608 7.67643 2.90608C8.83545 2.90608 9.96087 3.35961 10.8007 4.19947C11.6406 5.03934 12.0941 6.14796 12.0941 7.32377C12.0941 9.75938 10.0952 11.7583 7.65964 11.7583ZM11.439 3.56117C10.4312 2.55333 9.08741 1.99902 7.65964 1.99902C4.72011 1.99902 2.31809 4.38424 2.31809 7.32377C2.31809 8.26442 2.57005 9.17148 3.02358 9.97775L2.2677 12.7325L5.08965 11.9934C5.86232 12.4134 6.75258 12.6485 7.64284 12.6485C10.5824 12.6485 12.9844 10.2633 12.9844 7.32377C13.0012 5.9128 12.4469 4.56901 11.439 3.56117Z" fill="white"/>
</svg>
