<svg width="24" height="26" viewBox="0 0 24 26" fill="none" xmlns="http://www.w3.org/2000/svg">
<ellipse cx="6.26087" cy="6" rx="6.26087" ry="6" fill="#333333"/>
<path d="M0 16.654C0 15.1883 1.18817 14.0001 2.65385 14.0001H9.86789C11.3336 14.0001 12.5217 15.1883 12.5217 16.654V26.0001H0V16.654Z" fill="#333333"/>
<ellipse cx="19.3041" cy="9.49994" rx="4.69565" ry="4.5" fill="#333333"/>
<path d="M14.6084 18.6539C14.6084 17.1883 15.7966 16.0001 17.2622 16.0001H21.3459C22.8115 16.0001 23.9997 17.1883 23.9997 18.6539V26.0001H14.6084V18.6539Z" fill="#333333"/>
<ellipse cx="19.3041" cy="9.49994" rx="4.69565" ry="4.5" fill="#333333"/>
<path d="M14.6084 18.6539C14.6084 17.1883 15.7966 16.0001 17.2622 16.0001H21.3459C22.8115 16.0001 23.9997 17.1883 23.9997 18.6539V26.0001H14.6084V18.6539Z" fill="#333333"/>
</svg>
