<svg width="21" height="23" viewBox="0 0 21 23" fill="none" xmlns="http://www.w3.org/2000/svg">
<g clip-path="url(#clip0_101_42)">
<path d="M1.52677 19.0871C1.52677 20.8176 2.5731 21.7191 4.35611 21.7191H9.37421V12.4139H1.52677V19.0871ZM11.1251 21.7191H16.1539C17.9263 21.7191 18.9832 20.8176 18.9832 19.0871V12.4139H11.1251V21.7191ZM0 9.76119C0 10.8699 0.640604 11.3052 1.79369 11.3052H9.37421V5.69919H7.70861C6.03235 5.69919 5.0501 4.67334 5.0501 3.53349C5.0501 2.39366 5.90424 1.73048 7.07868 1.73048C8.34921 1.73048 9.37421 2.66308 9.37421 4.19667V5.69919H11.1251V4.19667C11.1251 2.66308 12.1501 1.73048 13.4207 1.73048C14.5951 1.73048 15.4492 2.39366 15.4492 3.53349C15.4492 4.67334 14.4776 5.69919 12.7908 5.69919H11.1251V11.3052H18.7164C19.8694 11.3052 20.51 10.8699 20.51 9.76119V7.24315C20.51 6.1344 19.8694 5.69919 18.7164 5.69919H16.2393C16.8586 5.12927 17.2323 4.35211 17.2323 3.44023C17.2323 1.42998 15.5987 0 13.5275 0C12.0327 0 10.7942 0.797887 10.2497 2.18642C9.70512 0.797887 8.47733 0 6.97191 0C4.9113 0 3.26708 1.42998 3.26708 3.44023C3.26708 4.35211 3.64076 5.12927 4.2707 5.69919H1.79369C0.693988 5.69919 0 6.1344 0 7.24315V9.76119Z" fill="white"/>
</g>
<defs>
<clipPath id="clip0_101_42">
<rect width="20.51" height="22.89" fill="white"/>
</clipPath>
</defs>
</svg>
