<svg width="20" height="20" viewBox="0 0 20 20" fill="none" xmlns="http://www.w3.org/2000/svg">
<g clip-path="url(#clip0_38_70)">
<path d="M19.9895 10.1873C19.9895 9.36792 19.9214 8.76998 19.7742 8.1499H10.1992V11.8482H15.8195C15.7062 12.7673 15.0943 14.1514 13.7346 15.0815L13.7155 15.2053L16.7429 17.4972L16.9527 17.5176C18.8789 15.7791 19.9895 13.2213 19.9895 10.1873Z" fill="#4285F4"/>
<path d="M10.1992 19.9312C12.9527 19.9312 15.2642 19.0453 16.9526 17.5173L13.7345 15.0812C12.8734 15.6681 11.7176 16.0777 10.1992 16.0777C7.50236 16.0777 5.21346 14.3393 4.39753 11.9365L4.27793 11.9464L1.12997 14.3271L1.08881 14.439C2.76582 17.6944 6.21054 19.9312 10.1992 19.9312Z" fill="#34A853"/>
<path d="M4.39778 11.9368C4.18249 11.3167 4.0579 10.6523 4.0579 9.96583C4.0579 9.27927 4.18249 8.61492 4.38646 7.99484L4.38075 7.86278L1.19335 5.44385L1.08906 5.49232C0.397882 6.84324 0.00128174 8.36026 0.00128174 9.96583C0.00128174 11.5714 0.397882 13.0884 1.08906 14.4393L4.39778 11.9368Z" fill="#FBBC05"/>
<path d="M10.1992 3.85336C12.1142 3.85336 13.4059 4.66168 14.1425 5.33718L17.0206 2.59107C15.253 0.985496 12.9527 0 10.1992 0C6.21054 0 2.76582 2.23672 1.08881 5.49214L4.3862 7.99466C5.21346 5.59183 7.50236 3.85336 10.1992 3.85336Z" fill="#EB4335"/>
</g>
<defs>
<clipPath id="clip0_38_70">
<rect width="20" height="20" fill="white"/>
</clipPath>
</defs>
</svg>
