<svg width="24" height="24" viewBox="0 0 24 24" fill="none" xmlns="http://www.w3.org/2000/svg">
<g clip-path="url(#clip0_1088_1389)">
<path d="M11.017 2.81444C11.0599 2.58504 11.1816 2.37786 11.3611 2.22876C11.5406 2.07966 11.7667 1.99805 12 1.99805C12.2334 1.99805 12.4594 2.07966 12.6389 2.22876C12.8184 2.37786 12.9402 2.58504 12.983 2.81444L14.034 8.37244C14.1087 8.76759 14.3007 9.13106 14.585 9.41541C14.8694 9.69977 15.2329 9.8918 15.628 9.96644L21.186 11.0174C21.4154 11.0603 21.6226 11.182 21.7717 11.3615C21.9208 11.5411 22.0024 11.7671 22.0024 12.0004C22.0024 12.2338 21.9208 12.4598 21.7717 12.6393C21.6226 12.8189 21.4154 12.9406 21.186 12.9834L15.628 14.0344C15.2329 14.1091 14.8694 14.3011 14.585 14.5855C14.3007 14.8698 14.1087 15.2333 14.034 15.6284L12.983 21.1864C12.9402 21.4158 12.8184 21.623 12.6389 21.7721C12.4594 21.9212 12.2334 22.0028 12 22.0028C11.7667 22.0028 11.5406 21.9212 11.3611 21.7721C11.1816 21.623 11.0599 21.4158 11.017 21.1864L9.96601 15.6284C9.89137 15.2333 9.69934 14.8698 9.41498 14.5855C9.13063 14.3011 8.76716 14.1091 8.37201 14.0344L2.81401 12.9834C2.58462 12.9406 2.37743 12.8189 2.22833 12.6393C2.07924 12.4598 1.99762 12.2338 1.99762 12.0004C1.99762 11.7671 2.07924 11.5411 2.22833 11.3615C2.37743 11.182 2.58462 11.0603 2.81401 11.0174L8.37201 9.96644C8.76716 9.8918 9.13063 9.69977 9.41498 9.41541C9.69934 9.13106 9.89137 8.76759 9.96601 8.37244L11.017 2.81444Z" stroke="white" stroke-width="2" stroke-linecap="round" stroke-linejoin="round"/>
<path d="M20 2V6" stroke="white" stroke-width="2" stroke-linecap="round" stroke-linejoin="round"/>
<path d="M22 4H18" stroke="white" stroke-width="2" stroke-linecap="round" stroke-linejoin="round"/>
<path d="M4 22C5.10457 22 6 21.1046 6 20C6 18.8954 5.10457 18 4 18C2.89543 18 2 18.8954 2 20C2 21.1046 2.89543 22 4 22Z" stroke="white" stroke-width="2" stroke-linecap="round" stroke-linejoin="round"/>
</g>
<defs>
<clipPath id="clip0_1088_1389">
<rect width="24" height="24" fill="white"/>
</clipPath>
</defs>
</svg>
