<svg width="12" height="12" viewBox="0 0 12 12" fill="none" xmlns="http://www.w3.org/2000/svg">
<path d="M6.86824 10.924C7.51487 10.81 8.13272 10.5698 8.6865 10.217C9.24028 9.86416 9.71914 9.40574 10.0958 8.86788C10.4724 8.33002 10.7394 7.72324 10.8815 7.0822C11.0236 6.44115 11.0381 5.77839 10.924 5.13176C10.81 4.48512 10.5698 3.86728 10.217 3.3135C9.86416 2.75972 9.40574 2.28086 8.86788 1.90424C8.33002 1.52762 7.72324 1.26064 7.0822 1.11852C6.44115 0.976404 5.77839 0.961942 5.13176 1.07596C4.48512 1.18998 3.86728 1.43025 3.3135 1.78304C2.75972 2.13584 2.28085 2.59426 1.90424 3.13212C1.52762 3.66998 1.26064 4.27676 1.11852 4.9178C0.976404 5.55885 0.961942 6.22161 1.07596 6.86824C1.18998 7.51488 1.43025 8.13272 1.78304 8.6865C2.13584 9.24028 2.59426 9.71915 3.13212 10.0958C3.66998 10.4724 4.27676 10.7394 4.9178 10.8815C5.55885 11.0236 6.22161 11.0381 6.86824 10.924L6.86824 10.924Z" stroke="#374151"/>
<path d="M6 6L6 9" stroke="#374151" stroke-linecap="square"/>
<path d="M6 3.5L6 3" stroke="#374151" stroke-linecap="square"/>
</svg>
