<svg width="21" height="21" viewBox="0 0 21 21" fill="none" xmlns="http://www.w3.org/2000/svg">
<path d="M18.2939 10.313C18.5282 10.55 18.6601 10.8695 18.6602 11.2065V17.4312C18.6602 17.6676 18.4696 17.8472 18.2578 17.8472H13.7139C13.5104 17.8472 13.3284 17.6766 13.3281 17.4487V13.6831C13.3281 12.0663 12.0279 10.7388 10.4062 10.7388C8.78466 10.7389 7.48443 12.0664 7.48438 13.6831V17.4487C7.48415 17.6765 7.30297 17.8471 7.09961 17.8472H2.55469C2.34293 17.8471 2.15332 17.6675 2.15332 17.4312V11.2065C2.15334 10.8694 2.28507 10.55 2.51953 10.313L10.4062 2.34033L18.2939 10.313Z" fill="#6E508E" stroke="#6E508E" stroke-width="1.70493"/>
</svg>
