<svg width="15" height="15" viewBox="0 0 15 15" fill="none" xmlns="http://www.w3.org/2000/svg">
<g clip-path="url(#clip0_759_1381)">
<path d="M3.80367 14.9469C3.22349 14.9404 2.64875 14.834 2.1047 14.6323C1.70742 14.4855 1.34797 14.2517 1.05265 13.9481C0.748201 13.6533 0.514071 13.2938 0.367647 12.8962C0.16614 12.3521 0.0598797 11.7775 0.0535294 11.1973C0.00897058 10.2329 0 9.94367 0 7.5C0 5.05632 0.00985294 4.76809 0.0530882 3.80294C0.0602092 3.22305 0.1666 2.64867 0.367647 2.1047C0.514784 1.70735 0.748582 1.34776 1.05206 1.05206C1.34702 0.747886 1.70663 0.513974 2.10426 0.367647C2.64831 0.165973 3.22304 0.059563 3.80323 0.0530882C4.76794 0.00897058 5.05764 0 7.5 0C9.94235 0 10.2319 0.00985294 11.1971 0.0530882C11.7771 0.0601589 12.3516 0.166551 12.8957 0.367647C13.2932 0.514167 13.6527 0.747998 13.9478 1.05191C14.2518 1.34709 14.4857 1.7067 14.6323 2.10426C14.8341 2.6483 14.9405 3.22304 14.9471 3.80323C14.9912 4.76838 15.0001 5.05735 15.0001 7.50029C15.0001 9.94323 14.9912 10.2322 14.9471 11.1973C14.94 11.7774 14.8336 12.3521 14.6323 12.8962C14.4801 13.2908 14.2469 13.6491 13.9478 13.9481C13.6487 14.2471 13.2903 14.4802 12.8957 14.6323C12.3517 14.8341 11.777 14.9405 11.1968 14.9471C10.2325 14.9912 9.94264 15.0001 7.4997 15.0001C5.05676 15.0001 4.76779 14.9916 3.80353 14.9471" fill="#111827"/>
<path d="M3.80367 14.9469C3.22349 14.9404 2.64875 14.834 2.1047 14.6323C1.70742 14.4855 1.34797 14.2517 1.05265 13.9481C0.748201 13.6533 0.514071 13.2938 0.367647 12.8962C0.16614 12.3521 0.0598797 11.7775 0.0535294 11.1973C0.00897058 10.2329 0 9.94367 0 7.5C0 5.05632 0.00985294 4.76809 0.0530882 3.80294C0.0602092 3.22305 0.1666 2.64867 0.367647 2.1047C0.514784 1.70735 0.748582 1.34776 1.05206 1.05206C1.34702 0.747886 1.70663 0.513974 2.10426 0.367647C2.64831 0.165973 3.22304 0.059563 3.80323 0.0530882C4.76794 0.00897058 5.05764 0 7.5 0C9.94235 0 10.2319 0.00985294 11.1971 0.0530882C11.7771 0.0601589 12.3516 0.166551 12.8957 0.367647C13.2932 0.514167 13.6527 0.747998 13.9478 1.05191C14.2518 1.34709 14.4857 1.7067 14.6323 2.10426C14.8341 2.6483 14.9405 3.22304 14.9471 3.80323C14.9912 4.76838 15.0001 5.05735 15.0001 7.50029C15.0001 9.94323 14.9912 10.2322 14.9471 11.1973C14.94 11.7774 14.8336 12.3521 14.6323 12.8962C14.4801 13.2908 14.2469 13.6491 13.9478 13.9481C13.6487 14.2471 13.2903 14.4802 12.8957 14.6323C12.3517 14.8341 11.777 14.9405 11.1968 14.9471C10.2325 14.9912 9.94264 15.0001 7.4997 15.0001C5.05676 15.0001 4.76779 14.9916 3.80353 14.9471" fill="#111827"/>
<path d="M5.65841 7.53168C5.65844 7.16429 5.76741 6.80517 5.97155 6.49972C6.17568 6.19426 6.46581 5.9562 6.80525 5.81565C7.14468 5.67509 7.51817 5.63834 7.87849 5.71006C8.23881 5.78177 8.56977 5.95872 8.82952 6.21853C9.08927 6.47834 9.26614 6.80934 9.33777 7.16968C9.40939 7.53001 9.37256 7.9035 9.23192 8.2429C9.09128 8.5823 8.85315 8.87237 8.54765 9.07643C8.24215 9.28049 7.883 9.38938 7.51562 9.38933C7.023 9.38925 6.55059 9.19349 6.2023 8.84512C5.85401 8.49674 5.65837 8.02429 5.65841 7.53168ZM4.65415 7.53168C4.65415 8.09762 4.82197 8.65086 5.13639 9.12143C5.45081 9.59199 5.89771 9.95875 6.42058 10.1753C6.94345 10.3919 7.51879 10.4486 8.07386 10.3382C8.62893 10.2278 9.1388 9.95522 9.53898 9.55504C9.93917 9.15486 10.2117 8.64499 10.3221 8.08992C10.4325 7.53485 10.3759 6.9595 10.1593 6.43664C9.94269 5.91377 9.57593 5.46687 9.10537 5.15245C8.6348 4.83803 8.08156 4.6702 7.51562 4.6702C7.13984 4.67019 6.76774 4.74419 6.42056 4.88798C6.07338 5.03178 5.75792 5.24255 5.49221 5.50827C5.22649 5.77398 5.01572 6.08944 4.87192 6.43662C4.72813 6.78379 4.65413 7.1559 4.65415 7.53168ZM9.82165 4.55682C9.82159 4.68907 9.86075 4.81837 9.93418 4.92837C10.0076 5.03837 10.112 5.12412 10.2342 5.17478C10.3563 5.22545 10.4908 5.23875 10.6205 5.213C10.7502 5.18726 10.8694 5.12363 10.9629 5.03015C11.0565 4.93668 11.1202 4.81756 11.1461 4.68786C11.172 4.55816 11.1588 4.42371 11.1082 4.3015C11.0577 4.17929 10.972 4.07482 10.8621 4.0013C10.7521 3.92778 10.6229 3.8885 10.4906 3.88844C10.3133 3.88852 10.1434 3.95896 10.018 4.08428C9.8926 4.2096 9.8221 4.37955 9.82194 4.55682M5.26459 12.0677C4.91122 12.0638 4.56116 11.9992 4.22973 11.8765C3.98938 11.7839 3.77108 11.6419 3.5889 11.4598C3.40671 11.2777 3.26468 11.0595 3.17194 10.8192C3.04926 10.4878 2.98459 10.1377 2.98076 9.78432C2.9537 9.19697 2.94841 9.0205 2.94841 7.53241C2.94841 6.04432 2.95429 5.8683 2.98076 5.28035C2.98505 4.92703 3.0497 4.57703 3.17194 4.2455C3.26457 4.00507 3.40657 3.78672 3.58876 3.60453C3.77095 3.42233 3.9893 3.28034 4.22973 3.18771C4.56114 3.06503 4.91122 3.00036 5.26459 2.99653C5.85194 2.96947 6.02841 2.96418 7.51591 2.96418C9.00341 2.96418 9.18003 2.96991 9.76797 2.99668C10.1213 3.00097 10.4713 3.06562 10.8028 3.18785C11.0433 3.2805 11.2616 3.42249 11.4438 3.60468C11.626 3.78688 11.768 4.00522 11.8606 4.24565C11.9833 4.57706 12.048 4.92713 12.0518 5.2805C12.0789 5.86874 12.0841 6.04432 12.0841 7.53256C12.0841 9.02079 12.0787 9.19668 12.0518 9.78462C12.0477 10.138 11.983 10.488 11.8606 10.8195C11.7679 11.0598 11.6258 11.278 11.4437 11.4601C11.2615 11.6422 11.0432 11.7842 10.8028 11.8768C10.4714 11.9995 10.1213 12.0642 9.76797 12.068C9.18062 12.0951 9.00415 12.1004 7.51591 12.1004C6.02767 12.1004 5.85179 12.0949 5.26459 12.068M5.21841 1.99315C4.75603 2.00224 4.29855 2.08976 3.86547 2.25197C3.49525 2.39511 3.15902 2.61404 2.87835 2.89471C2.59768 3.17538 2.37876 3.5116 2.23561 3.88182C2.07342 4.31491 1.98591 4.77239 1.97679 5.23477C1.94929 5.82888 1.94312 6.01888 1.94312 7.53226C1.94312 9.04565 1.94944 9.2355 1.97679 9.82977C1.9859 10.2921 2.07342 10.7496 2.23561 11.1827C2.37876 11.5529 2.59769 11.8891 2.87836 12.1698C3.15903 12.4505 3.49525 12.6694 3.86547 12.8126C4.29857 12.9747 4.75604 13.0622 5.21841 13.0714C5.81282 13.0984 6.00253 13.1051 7.51591 13.1051C9.02929 13.1051 9.21915 13.0987 9.81341 13.0714C10.2758 13.0623 10.7333 12.9747 11.1664 12.8126C11.5366 12.6694 11.8728 12.4505 12.1535 12.1698C12.4341 11.8891 12.6531 11.5529 12.7962 11.1827C12.9586 10.7497 13.0461 10.2922 13.055 9.82977C13.0821 9.23521 13.0883 9.04565 13.0883 7.53226C13.0883 6.01888 13.0819 5.82903 13.055 5.23477C13.0459 4.77239 12.9584 4.31491 12.7962 3.88182C12.6531 3.51167 12.4342 3.1755 12.1536 2.89484C11.873 2.61418 11.5369 2.39521 11.1668 2.25197C10.7337 2.08965 10.2762 2.00213 9.81385 1.99315C9.21959 1.96594 9.02974 1.95947 7.51665 1.95947C6.00356 1.95947 5.81326 1.9658 5.2187 1.99315" fill="white"/>
</g>
<defs>
<clipPath id="clip0_759_1381">
<rect width="15" height="15" fill="white"/>
</clipPath>
</defs>
</svg>
