<svg width="25" height="24" viewBox="0 0 25 24" fill="none" xmlns="http://www.w3.org/2000/svg">
<g clip-path="url(#clip0_610_1661)">
<path d="M6.33946 23.915C5.37248 23.9047 4.41459 23.7344 3.50784 23.4118C2.8457 23.1768 2.24662 22.8027 1.75441 22.3169C1.247 21.8454 0.856785 21.2701 0.612745 20.6339C0.2769 19.7634 0.0997995 18.8439 0.0892156 17.9158C0.014951 16.3727 0 15.9099 0 12C0 8.09011 0.0164216 7.62894 0.0884803 6.0847C0.100349 5.15689 0.277667 4.23787 0.612745 3.36753C0.857973 2.73176 1.24764 2.15642 1.75343 1.68329C2.24503 1.19662 2.84439 0.822358 3.50711 0.588235C4.41385 0.265557 5.37174 0.0953007 6.33872 0.0849411C7.94656 0.0143529 8.42941 0 12.5 0C16.5706 0 17.0532 0.0157647 18.6618 0.0849411C19.6285 0.0962542 20.586 0.266481 21.4929 0.588235C22.1553 0.822667 22.7545 1.1968 23.2463 1.68306C23.753 2.15535 24.1429 2.73073 24.3872 3.36682C24.7234 4.23728 24.9009 5.15686 24.9118 6.08517C24.9853 7.62941 25.0002 8.09176 25.0002 12.0005C25.0002 15.9092 24.9853 16.3715 24.9118 17.9158C24.9001 18.8439 24.7227 19.7633 24.3872 20.6339C24.1335 21.2652 23.7449 21.8385 23.2464 22.317C22.7479 22.7954 22.1506 23.1683 21.4929 23.4118C20.5861 23.7345 19.6283 23.9048 18.6613 23.9153C17.0542 23.9859 16.5711 24.0002 12.4995 24.0002C8.42794 24.0002 7.94632 23.9866 6.33921 23.9153" fill="url(#paint0_radial_610_1661)"/>
<path d="M6.33946 23.915C5.37248 23.9047 4.41459 23.7344 3.50784 23.4118C2.8457 23.1768 2.24662 22.8027 1.75441 22.3169C1.247 21.8454 0.856785 21.2701 0.612745 20.6339C0.2769 19.7634 0.0997995 18.8439 0.0892156 17.9158C0.014951 16.3727 0 15.9099 0 12C0 8.09011 0.0164216 7.62894 0.0884803 6.0847C0.100349 5.15689 0.277667 4.23787 0.612745 3.36753C0.857973 2.73176 1.24764 2.15642 1.75343 1.68329C2.24503 1.19662 2.84439 0.822358 3.50711 0.588235C4.41385 0.265557 5.37174 0.0953007 6.33872 0.0849411C7.94656 0.0143529 8.42941 0 12.5 0C16.5706 0 17.0532 0.0157647 18.6618 0.0849411C19.6285 0.0962542 20.586 0.266481 21.4929 0.588235C22.1553 0.822667 22.7545 1.1968 23.2463 1.68306C23.753 2.15535 24.1429 2.73073 24.3872 3.36682C24.7234 4.23728 24.9009 5.15686 24.9118 6.08517C24.9853 7.62941 25.0002 8.09176 25.0002 12.0005C25.0002 15.9092 24.9853 16.3715 24.9118 17.9158C24.9001 18.8439 24.7227 19.7633 24.3872 20.6339C24.1335 21.2652 23.7449 21.8385 23.2464 22.317C22.7479 22.7954 22.1506 23.1683 21.4929 23.4118C20.5861 23.7345 19.6283 23.9048 18.6613 23.9153C17.0542 23.9859 16.5711 24.0002 12.4995 24.0002C8.42794 24.0002 7.94632 23.9866 6.33921 23.9153" fill="url(#paint1_radial_610_1661)"/>
<path d="M9.43069 12.0511C9.43074 11.4632 9.61236 10.8886 9.95258 10.3999C10.2928 9.91119 10.7764 9.5303 11.3421 9.30541C11.9078 9.08051 12.5303 9.02172 13.1308 9.13646C13.7313 9.2512 14.2829 9.53432 14.7159 9.95002C15.1488 10.3657 15.4436 10.8953 15.5629 11.4719C15.6823 12.0484 15.6209 12.646 15.3865 13.189C15.1521 13.732 14.7553 14.1962 14.2461 14.5227C13.7369 14.8492 13.1383 15.0234 12.526 15.0233C11.705 15.0232 10.9177 14.71 10.3372 14.1526C9.75669 13.5952 9.43062 12.8392 9.43069 12.0511ZM7.75691 12.0511C7.75691 12.9566 8.03661 13.8417 8.56065 14.5947C9.08469 15.3476 9.82952 15.9344 10.701 16.2809C11.5724 16.6274 12.5313 16.7181 13.4564 16.5414C14.3816 16.3648 15.2313 15.9287 15.8983 15.2884C16.5653 14.6481 17.0195 13.8324 17.2035 12.9442C17.3875 12.0561 17.2931 11.1356 16.9321 10.299C16.5712 9.46241 15.9599 8.74737 15.1756 8.24429C14.3913 7.74122 13.4693 7.4727 12.526 7.4727C11.8997 7.47267 11.2796 7.59107 10.7009 7.82115C10.1223 8.05122 9.59654 8.38845 9.15368 8.8136C8.71082 9.23874 8.35953 9.74347 8.11987 10.299C7.88021 10.8544 7.75688 11.4498 7.75691 12.0511ZM16.3694 7.29129C16.3693 7.50289 16.4346 7.70977 16.557 7.88576C16.6793 8.06176 16.8533 8.19896 17.0569 8.28002C17.2605 8.36109 17.4846 8.38237 17.7008 8.34118C17.917 8.29999 18.1156 8.19817 18.2716 8.04861C18.4275 7.89905 18.5337 7.70847 18.5768 7.50095C18.6199 7.29343 18.5979 7.0783 18.5137 6.88277C18.4294 6.68724 18.2867 6.52009 18.1034 6.40245C17.9202 6.28481 17.7048 6.22197 17.4844 6.22188C17.1889 6.22201 16.9056 6.3347 16.6966 6.53521C16.4877 6.73573 16.3702 7.00766 16.3699 7.29129M8.77431 19.3087C8.18537 19.3025 7.60193 19.199 7.04955 19.0028C6.64896 18.8546 6.28513 18.6275 5.9815 18.3361C5.67786 18.0447 5.44114 17.6956 5.28656 17.3111C5.0821 16.7808 4.97431 16.2207 4.96794 15.6553C4.92284 14.7155 4.91402 14.4332 4.91402 12.0522C4.91402 9.67129 4.92382 9.38964 4.96794 8.44894C4.97508 7.88362 5.08284 7.32363 5.28656 6.79317C5.44096 6.40848 5.67761 6.05912 5.98126 5.76762C6.28492 5.47611 6.64883 5.24892 7.04955 5.1007C7.60191 4.90442 8.18536 4.80095 8.77431 4.79482C9.75323 4.75153 10.0473 4.74306 12.5265 4.74306C15.0057 4.74306 15.3 4.75224 16.2799 4.79506C16.8688 4.80192 17.4521 4.90537 18.0047 5.10094C18.4054 5.24917 18.7693 5.47636 19.073 5.76787C19.3766 6.05937 19.6133 6.40873 19.7677 6.79341C19.9722 7.32367 20.0799 7.88379 20.0863 8.44918C20.1314 9.39035 20.1402 9.67129 20.1402 12.0525C20.1402 14.4336 20.1312 14.7151 20.0863 15.6558C20.0795 16.2211 19.9717 16.7811 19.7677 17.3115C19.6131 17.696 19.3764 18.0452 19.0728 18.3366C18.7691 18.628 18.4053 18.8551 18.0047 19.0033C17.4524 19.1996 16.8689 19.303 16.2799 19.3092C15.301 19.3525 15.0069 19.3609 12.5265 19.3609C10.0461 19.3609 9.75299 19.3522 8.77431 19.3092M8.69735 3.18941C7.92672 3.20396 7.16425 3.34398 6.44245 3.60352C5.82541 3.83255 5.26504 4.18284 4.79726 4.63191C4.32947 5.08098 3.96459 5.61894 3.72602 6.21129C3.4557 6.90424 3.30984 7.6362 3.29465 8.376C3.24882 9.32659 3.23853 9.63058 3.23853 12.052C3.23853 14.4734 3.24907 14.7772 3.29465 15.728C3.30984 16.4678 3.4557 17.1998 3.72602 17.8927C3.96461 18.485 4.32949 19.023 4.79727 19.4721C5.26505 19.9211 5.82542 20.2714 6.44245 20.5005C7.16429 20.7599 7.92674 20.8999 8.69735 20.9146C9.68804 20.9579 10.0042 20.9685 12.5265 20.9685C15.0488 20.9685 15.3652 20.9583 16.3557 20.9146C17.1263 20.9 17.8888 20.7599 18.6106 20.5005C19.2276 20.2714 19.788 19.9211 20.2558 19.4721C20.7235 19.023 21.0884 18.485 21.327 17.8927C21.5977 17.1999 21.7436 16.4678 21.7584 15.728C21.8035 14.7767 21.8138 14.4734 21.8138 12.052C21.8138 9.63058 21.8032 9.32682 21.7584 8.376C21.7432 7.63619 21.5974 6.90423 21.327 6.21129C21.0884 5.61905 20.7237 5.08118 20.256 4.63212C19.7884 4.18306 19.2282 3.83271 18.6113 3.60352C17.8896 3.34381 17.1271 3.20378 16.3564 3.18941C15.366 3.14588 15.0496 3.13553 12.5277 3.13553C10.0059 3.13553 9.68877 3.14565 8.69784 3.18941" fill="white"/>
</g>
<defs>
<radialGradient id="paint0_radial_610_1661" cx="0" cy="0" r="1" gradientUnits="userSpaceOnUse" gradientTransform="translate(1.61789 23.4743) scale(31.7407 30.471)">
<stop offset="0.09" stop-color="#FA8F21"/>
<stop offset="0.78" stop-color="#D82D7E"/>
</radialGradient>
<radialGradient id="paint1_radial_610_1661" cx="0" cy="0" r="1" gradientUnits="userSpaceOnUse" gradientTransform="translate(17.3167 22.7035) scale(27.9321 26.8148)">
<stop offset="0.64" stop-color="#8C3AAA" stop-opacity="0"/>
<stop offset="1" stop-color="#8C3AAA"/>
</radialGradient>
<clipPath id="clip0_610_1661">
<rect width="25" height="24" fill="white"/>
</clipPath>
</defs>
</svg>
