<svg width="15" height="15" viewBox="0 0 15 15" fill="none" xmlns="http://www.w3.org/2000/svg">
<path d="M7.5 14.0625C11.1244 14.0625 14.0625 11.1244 14.0625 7.5C14.0625 3.87563 11.1244 0.9375 7.5 0.9375C3.87563 0.9375 0.9375 3.87563 0.9375 7.5C0.9375 11.1244 3.87563 14.0625 7.5 14.0625Z" fill="#1485BD"/>
<path fill-rule="evenodd" clip-rule="evenodd" d="M11.1847 6.79668H10.6691C10.6222 6.79668 10.5284 6.61855 10.2941 6.36543C9.94718 5.99043 9.56281 5.5123 9.29093 5.2498C8.61633 4.66435 8.06499 3.95048 7.66906 3.1498C7.44406 2.67168 7.42531 2.45605 6.96593 2.45605C6.7845 2.47948 6.61873 2.57092 6.50213 2.71188C6.38553 2.85285 6.3268 3.03282 6.33781 3.21543C6.33781 3.34668 6.40343 3.80605 6.43156 3.96543C6.63236 4.69842 6.94884 5.39468 7.36906 6.02793H7.87531H3.86281C3.74916 6.02625 3.63642 6.04835 3.53181 6.0928C3.4272 6.13725 3.33304 6.20307 3.25536 6.28605C3.17768 6.36902 3.1182 6.46732 3.08074 6.57463C3.04327 6.68193 3.02865 6.79589 3.03781 6.90918C3.05226 7.12883 3.15105 7.3344 3.31354 7.48291C3.47602 7.63141 3.68962 7.71137 3.90968 7.70606H4.05968C3.96364 7.70849 3.86903 7.72982 3.78123 7.76883C3.69344 7.80784 3.6142 7.86377 3.54803 7.93342C3.48186 8.00307 3.43007 8.08508 3.39561 8.17476C3.36114 8.26443 3.34469 8.36002 3.34718 8.45606C3.34881 8.64496 3.42079 8.82648 3.54907 8.96517C3.67735 9.10385 3.85272 9.18974 4.04093 9.20605C3.92637 9.2937 3.83951 9.41253 3.79077 9.54829C3.74203 9.68405 3.73347 9.83099 3.76612 9.97149C3.79877 10.112 3.87125 10.2401 3.97486 10.3405C4.07848 10.4408 4.20883 10.5092 4.35031 10.5373C4.26048 10.6932 4.23049 10.8765 4.26593 11.0529C4.31394 11.2261 4.41842 11.3783 4.5628 11.4853C4.70717 11.5923 4.88316 11.648 5.06281 11.6436H7.20968C7.49093 11.6436 7.77125 11.6079 8.04406 11.5404L9.37531 11.1467H11.1566C12.1128 11.1092 12.3659 6.79668 11.1847 6.79668Z" fill="#E6F7FF"/>
<path d="M6.96474 6.02786H3.85224C3.73375 6.02675 3.61641 6.05118 3.50821 6.09949C3.4 6.1478 3.30348 6.21885 3.22519 6.3078C3.14691 6.39676 3.08871 6.50154 3.05455 6.61501C3.02039 6.72847 3.01108 6.84797 3.02724 6.96536C3.04399 7.18334 3.14378 7.38657 3.30602 7.5331C3.46826 7.67964 3.68056 7.75831 3.89912 7.75286H4.04912C3.95308 7.75529 3.85846 7.77662 3.77067 7.81563C3.68288 7.85464 3.60363 7.91057 3.53747 7.98022C3.4713 8.04988 3.4195 8.13188 3.38504 8.22156C3.35058 8.31123 3.33412 8.40682 3.33662 8.50286C3.34007 8.69217 3.41242 8.87373 3.54013 9.01352C3.66784 9.1533 3.84214 9.24173 4.03037 9.26223C3.94072 9.33257 3.86804 9.42218 3.81773 9.52442C3.76742 9.62666 3.74077 9.73891 3.73974 9.85286C3.74021 10.0287 3.80096 10.1991 3.91185 10.3356C4.02275 10.4721 4.17708 10.5664 4.34912 10.6029C4.25864 10.762 4.22868 10.9484 4.26474 11.1279C4.31449 11.2993 4.41971 11.4494 4.56393 11.5546C4.70814 11.6597 4.88319 11.7141 5.06162 11.7091H7.20849C7.48974 11.7091 7.77005 11.6735 8.04287 11.606L9.37412 11.1654H11.1554C12.0929 11.1654 12.346 6.81536 11.1554 6.81536C10.9836 6.82482 10.8115 6.82482 10.6397 6.81536C10.5929 6.81536 10.4991 6.63723 10.2647 6.38411C9.91787 6.00911 9.53349 5.53098 9.26162 5.26848C8.59615 4.67762 8.05446 3.96067 7.66787 3.15911C7.59341 2.98221 7.49223 2.81779 7.36787 2.67161C7.21173 2.5403 7.01026 2.47557 6.80686 2.49135C6.60346 2.50713 6.41439 2.60216 6.28037 2.75598C6.18321 2.86106 6.10403 2.98142 6.04599 3.11223C6.00806 3.20276 5.97978 3.29703 5.96162 3.39348C5.93646 3.6578 5.95869 3.92448 6.02724 4.18098C6.08724 4.45098 6.17255 4.71442 6.28037 4.96848C6.45662 5.29942 6.66474 5.61348 6.89912 5.90598C6.92804 5.92381 6.95092 5.94995 6.96474 5.98098" stroke="#004B7C" stroke-linecap="round" stroke-linejoin="round"/>
</svg>
