<svg width="15" height="15" viewBox="0 0 15 15" fill="none" xmlns="http://www.w3.org/2000/svg">
<g clip-path="url(#clip0_759_1385)">
<path d="M14.1667 0H0.833333C0.373096 0 0 0.373096 0 0.833333V14.1667C0 14.6269 0.373096 15 0.833333 15H14.1667C14.6269 15 15 14.6269 15 14.1667V0.833333C15 0.373096 14.6269 0 14.1667 0Z" fill="#111827"/>
<path fill-rule="evenodd" clip-rule="evenodd" d="M2.73728 5.80188H4.74207V12.2523H2.73728V5.80188ZM3.73999 2.59542C4.38103 2.59542 4.90187 3.11626 4.90187 3.7573C4.90187 4.39896 4.38103 4.92001 3.73999 4.92001C3.5855 4.92293 3.43198 4.89503 3.28841 4.83793C3.14483 4.78084 3.01408 4.69569 2.90379 4.58747C2.7935 4.47925 2.70589 4.35013 2.64609 4.20766C2.58628 4.06519 2.55548 3.91223 2.55548 3.75771C2.55548 3.6032 2.58628 3.45024 2.64609 3.30777C2.70589 3.1653 2.7935 3.03618 2.90379 2.92796C3.01408 2.81974 3.14483 2.73459 3.28841 2.6775C3.43198 2.6204 3.5855 2.5925 3.73999 2.59542ZM5.99958 5.80167H7.9225V6.68313H7.94916C8.21687 6.17605 8.87083 5.64146 9.84604 5.64146C11.876 5.64146 12.251 6.97751 12.251 8.71438V12.2523H10.2475V9.11542C10.2475 8.36751 10.2337 7.40521 9.20583 7.40521C8.16271 7.40521 8.0025 8.22001 8.0025 9.06146V12.2523H5.99937V5.80188L5.99958 5.80167Z" fill="white"/>
</g>
<defs>
<clipPath id="clip0_759_1385">
<rect width="15" height="15" fill="white"/>
</clipPath>
</defs>
</svg>
