<svg width="30" height="30" viewBox="0 0 30 30" fill="none" xmlns="http://www.w3.org/2000/svg">
<path d="M20 9V7.75C20 4.98858 17.7614 2.75 15 2.75C12.2386 2.75 10 4.98858 10 7.75V9" stroke="#333333" stroke-width="2" stroke-linecap="round"/>
<path d="M20.25 7.75C23.0784 7.75 24.4924 7.75023 25.3711 8.62891C26.2498 9.50759 26.25 10.9216 26.25 13.75V18.5C26.25 22.2712 26.2497 24.1566 25.0781 25.3281C23.9066 26.4997 22.0212 26.5 18.25 26.5H11.75C7.97876 26.5 6.09345 26.4997 4.92188 25.3281C3.7503 24.1566 3.75 22.2712 3.75 18.5V13.75C3.75 10.9216 3.75023 9.50759 4.62891 8.62891C5.50759 7.75023 6.92157 7.75 9.75 7.75H20.25ZM15 12.75C12.9289 12.75 11.25 14.4289 11.25 16.5C11.25 18.2246 12.4147 19.6755 14 20.1133V22.75H16V20.1133C17.5853 19.6755 18.75 18.2246 18.75 16.5C18.75 14.4289 17.0711 12.75 15 12.75ZM15 14.75C15.9665 14.75 16.75 15.5335 16.75 16.5C16.75 17.4665 15.9665 18.25 15 18.25C14.0335 18.25 13.25 17.4665 13.25 16.5C13.25 15.5335 14.0335 14.75 15 14.75Z" fill="#333333"/>
</svg>
