<svg width="40" height="40" viewBox="0 0 40 40" fill="none" xmlns="http://www.w3.org/2000/svg">
<path d="M17.1133 35C17.4059 35.5067 17.8266 35.9274 18.3334 36.22C18.8401 36.5125 19.4149 36.6665 19.9999 36.6665C20.585 36.6665 21.1598 36.5125 21.6665 36.22C22.1733 35.9274 22.594 35.5067 22.8866 35" stroke="#6E508E" stroke-width="4" stroke-linecap="round" stroke-linejoin="round"/>
<path d="M5.43643 25.5433C5.2187 25.7819 5.07502 26.0787 5.02285 26.3974C4.97069 26.7162 5.01229 27.0433 5.1426 27.3389C5.27291 27.6345 5.48632 27.8858 5.75685 28.0624C6.02739 28.2389 6.34339 28.333 6.66643 28.3333H33.3331C33.6561 28.3334 33.9722 28.2396 34.2429 28.0634C34.5136 27.8872 34.7272 27.6362 34.8579 27.3408C34.9886 27.0454 35.0306 26.7184 34.9788 26.3996C34.9271 26.0807 34.7838 25.7838 34.5664 25.5449C32.3498 23.2599 29.9998 20.8316 29.9998 13.3333C29.9998 10.6811 28.9462 8.13755 27.0708 6.26218C25.1955 4.38682 22.6519 3.33325 19.9998 3.33325C17.3476 3.33325 14.8041 4.38682 12.9287 6.26218C11.0533 8.13755 9.99976 10.6811 9.99976 13.3333C9.99976 20.8316 7.64809 23.2599 5.43643 25.5433Z" stroke="#6E508E" stroke-width="4" stroke-linecap="round" stroke-linejoin="round"/>
</svg>
