<svg width="20" height="20" viewBox="0 0 20 20" fill="none" xmlns="http://www.w3.org/2000/svg">
<rect width="20" height="20" rx="10" fill="url(#paint0_linear_724_888)"/>
<rect width="20" height="20" rx="10" fill="black" fill-opacity="0.2"/>
<g clip-path="url(#clip0_724_888)">
<path d="M9.50872 5.40701C9.53014 5.29231 9.59101 5.18871 9.68077 5.11417C9.77053 5.03962 9.88354 4.99881 10.0002 4.99881C10.1169 4.99881 10.2299 5.03962 10.3197 5.11417C10.4094 5.18871 10.4703 5.29231 10.4917 5.40701L11.0172 8.18601C11.0545 8.38358 11.1506 8.56532 11.2927 8.70749C11.4349 8.84967 11.6166 8.94568 11.8142 8.98301L14.5932 9.50851C14.7079 9.52993 14.8115 9.59079 14.8861 9.68056C14.9606 9.77032 15.0014 9.88333 15.0014 10C15.0014 10.1167 14.9606 10.2297 14.8861 10.3195C14.8115 10.4092 14.7079 10.4701 14.5932 10.4915L11.8142 11.017C11.6166 11.0543 11.4349 11.1503 11.2927 11.2925C11.1506 11.4347 11.0545 11.6164 11.0172 11.814L10.4917 14.593C10.4703 14.7077 10.4094 14.8113 10.3197 14.8858C10.2299 14.9604 10.1169 15.0012 10.0002 15.0012C9.88354 15.0012 9.77053 14.9604 9.68077 14.8858C9.59101 14.8113 9.53014 14.7077 9.50872 14.593L8.98322 11.814C8.9459 11.6164 8.84988 11.4347 8.70771 11.2925C8.56553 11.1503 8.38379 11.0543 8.18622 11.017L5.40722 10.4915C5.29252 10.4701 5.18893 10.4092 5.11438 10.3195C5.03983 10.2297 4.99902 10.1167 4.99902 10C4.99902 9.88333 5.03983 9.77032 5.11438 9.68056C5.18893 9.59079 5.29252 9.52993 5.40722 9.50851L8.18622 8.98301C8.38379 8.94568 8.56553 8.84967 8.70771 8.70749C8.84988 8.56532 8.9459 8.38358 8.98322 8.18601L9.50872 5.40701Z" stroke="white" stroke-linecap="round" stroke-linejoin="round"/>
<path d="M14 5V7" stroke="white" stroke-linecap="round" stroke-linejoin="round"/>
<path d="M15 6H13" stroke="white" stroke-linecap="round" stroke-linejoin="round"/>
<path d="M6 15C6.55228 15 7 14.5523 7 14C7 13.4477 6.55228 13 6 13C5.44772 13 5 13.4477 5 14C5 14.5523 5.44772 15 6 15Z" stroke="white" stroke-linecap="round" stroke-linejoin="round"/>
</g>
<defs>
<linearGradient id="paint0_linear_724_888" x1="9.14289" y1="3.46467" x2="0.194293" y2="17.8783" gradientUnits="userSpaceOnUse">
<stop stop-color="#FE238B"/>
<stop offset="1" stop-color="#FA8F21"/>
</linearGradient>
<clipPath id="clip0_724_888">
<rect width="12" height="12" fill="white" transform="translate(4 4)"/>
</clipPath>
</defs>
</svg>
