<svg width="20" height="20" viewBox="0 0 20 20" fill="none" xmlns="http://www.w3.org/2000/svg">
<rect width="20" height="20" rx="10" fill="#1976D2"/>
<g clip-path="url(#clip0_835_3856)">
<path d="M9.50872 5.40698C9.53014 5.29228 9.59101 5.18868 9.68077 5.11414C9.77053 5.03959 9.88354 4.99878 10.0002 4.99878C10.1169 4.99878 10.2299 5.03959 10.3197 5.11414C10.4094 5.18868 10.4703 5.29228 10.4917 5.40698L11.0172 8.18598C11.0545 8.38355 11.1506 8.56529 11.2927 8.70746C11.4349 8.84964 11.6166 8.94565 11.8142 8.98298L14.5932 9.50848C14.7079 9.5299 14.8115 9.59076 14.8861 9.68053C14.9606 9.77029 15.0014 9.88329 15.0014 9.99998C15.0014 10.1167 14.9606 10.2297 14.8861 10.3194C14.8115 10.4092 14.7079 10.4701 14.5932 10.4915L11.8142 11.017C11.6166 11.0543 11.4349 11.1503 11.2927 11.2925C11.1506 11.4347 11.0545 11.6164 11.0172 11.814L10.4917 14.593C10.4703 14.7077 10.4094 14.8113 10.3197 14.8858C10.2299 14.9604 10.1169 15.0012 10.0002 15.0012C9.88354 15.0012 9.77053 14.9604 9.68077 14.8858C9.59101 14.8113 9.53014 14.7077 9.50872 14.593L8.98322 11.814C8.9459 11.6164 8.84988 11.4347 8.70771 11.2925C8.56553 11.1503 8.38379 11.0543 8.18622 11.017L5.40722 10.4915C5.29252 10.4701 5.18893 10.4092 5.11438 10.3194C5.03983 10.2297 4.99902 10.1167 4.99902 9.99998C4.99902 9.88329 5.03983 9.77029 5.11438 9.68053C5.18893 9.59076 5.29252 9.5299 5.40722 9.50848L8.18622 8.98298C8.38379 8.94565 8.56553 8.84964 8.70771 8.70746C8.84988 8.56529 8.9459 8.38355 8.98322 8.18598L9.50872 5.40698Z" stroke="white" stroke-linecap="round" stroke-linejoin="round"/>
<path d="M14 5V7" stroke="white" stroke-linecap="round" stroke-linejoin="round"/>
<path d="M15 6H13" stroke="white" stroke-linecap="round" stroke-linejoin="round"/>
<path d="M6 15C6.55228 15 7 14.5523 7 14C7 13.4477 6.55228 13 6 13C5.44772 13 5 13.4477 5 14C5 14.5523 5.44772 15 6 15Z" stroke="white" stroke-linecap="round" stroke-linejoin="round"/>
</g>
<defs>
<clipPath id="clip0_835_3856">
<rect width="12" height="12" fill="white" transform="translate(4 4)"/>
</clipPath>
</defs>
</svg>
