<svg width="16" height="16" viewBox="0 0 16 16" fill="none" xmlns="http://www.w3.org/2000/svg">
<path d="M9.33366 10L6.66699 12.6667L9.33366 15.3333" stroke="#111827"/>
<path d="M12.0418 5.66659C12.4762 6.419 12.6919 7.27774 12.6647 8.14613C12.6375 9.01452 12.3684 9.85807 11.8877 10.5818C11.407 11.3055 10.7338 11.8807 9.94398 12.2426C9.15411 12.6044 8.2789 12.7386 7.4169 12.63" stroke="#111827" stroke-linecap="round"/>
<path d="M6.66634 6L9.33301 3.33333L6.66634 0.666667" stroke="#111827"/>
<path d="M3.95822 10.3334C3.51751 9.57008 3.30199 8.69754 3.33661 7.8168C3.37123 6.93606 3.65457 6.08313 4.15383 5.35674C4.6531 4.63035 5.34787 4.06021 6.15773 3.71231C6.96759 3.36441 7.85942 3.25298 8.72998 3.39091" stroke="#111827" stroke-linecap="round"/>
</svg>
