<svg width="23" height="22" viewBox="0 0 23 22" fill="none" xmlns="http://www.w3.org/2000/svg">
<path d="M15.7176 20.79H19.797C21.0136 20.79 21.9994 19.5214 21.9994 17.9687V16.0962M15.7176 1H19.797C21.0136 1 21.9994 2.2584 21.9994 3.81124V5.69393M1 5.69393V3.81124C1 2.25849 1.98597 1 3.20249 1H7.27393M1 16.0961V17.9686C1 19.5213 1.98597 20.7899 3.20249 20.7899H7.27393" stroke="white" stroke-width="2" stroke-miterlimit="10" stroke-linecap="round" stroke-linejoin="round"/>
<path d="M15.7176 20.79H19.797C21.0136 20.79 21.9994 19.5214 21.9994 17.9687V16.0962M15.7176 1H19.797C21.0136 1 21.9994 2.2584 21.9994 3.81124V5.69393M1 5.69393V3.81124C1 2.25849 1.98597 1 3.20249 1H7.27393M1 16.0961V17.9686C1 19.5213 1.98597 20.7899 3.20249 20.7899H7.27393" stroke="white" stroke-width="2" stroke-miterlimit="10" stroke-linecap="round" stroke-linejoin="round"/>
<path d="M13.8645 16.4428H16.1517C16.8338 16.4428 17.3866 15.7316 17.3866 14.861V13.8111M13.8645 5.34726H16.1517C16.8338 5.34726 17.3866 6.05284 17.3866 6.92344V7.97904M5.61288 7.97894V6.92335C5.61288 6.05275 6.16572 5.34717 6.84775 5.34717H9.13049M5.61288 13.811V14.8609C5.61288 15.7315 6.16572 16.4427 6.84775 16.4427H9.13049" stroke="white" stroke-width="2" stroke-miterlimit="10" stroke-linecap="round" stroke-linejoin="round"/>
<path d="M13.8645 16.4428H16.1517C16.8338 16.4428 17.3866 15.7316 17.3866 14.861V13.8111M13.8645 5.34726H16.1517C16.8338 5.34726 17.3866 6.05284 17.3866 6.92344V7.97904M5.61288 7.97894V6.92335C5.61288 6.05275 6.16572 5.34717 6.84775 5.34717H9.13049M5.61288 13.811V14.8609C5.61288 15.7315 6.16572 16.4427 6.84775 16.4427H9.13049" stroke="white" stroke-width="2" stroke-miterlimit="10" stroke-linecap="round" stroke-linejoin="round"/>
<path d="M1.00049 10.8953H22" stroke="white" stroke-width="2" stroke-miterlimit="10" stroke-linecap="round" stroke-linejoin="round"/>
</svg>
