<svg width="40" height="40" viewBox="0 0 40 40" fill="none" xmlns="http://www.w3.org/2000/svg">
<path d="M24.227 36.1433C24.2903 36.3011 24.4004 36.4357 24.5425 36.5292C24.6845 36.6226 24.8518 36.6704 25.0217 36.666C25.1917 36.6616 25.3563 36.6054 25.4934 36.5048C25.6305 36.4042 25.7335 36.2641 25.7887 36.1033L36.622 4.4366C36.6753 4.28892 36.6855 4.12911 36.6513 3.97585C36.6172 3.8226 36.5401 3.68225 36.429 3.57123C36.318 3.4602 36.1777 3.38309 36.0244 3.34892C35.8712 3.31474 35.7113 3.32492 35.5637 3.37826L3.89699 14.2116C3.73615 14.2668 3.59604 14.3698 3.49545 14.5069C3.39486 14.644 3.33861 14.8086 3.33426 14.9785C3.3299 15.1485 3.37765 15.3158 3.47109 15.4578C3.56453 15.5999 3.69919 15.7099 3.85699 15.7733L17.0737 21.0733C17.4915 21.2405 17.8711 21.4907 18.1896 21.8086C18.5081 22.1266 18.759 22.5058 18.927 22.9233L24.227 36.1433Z" stroke="#6E508E" stroke-width="4" stroke-linecap="round" stroke-linejoin="round"/>
<path d="M36.4238 3.57837L18.1904 21.81" stroke="#6E508E" stroke-width="4" stroke-linecap="round" stroke-linejoin="round"/>
</svg>
