<svg width="40" height="40" viewBox="0 0 40 40" fill="none" xmlns="http://www.w3.org/2000/svg">
<path d="M3.33301 3.33325H6.23302C8.03302 3.33325 9.44968 4.88325 9.29968 6.66659L7.91634 23.2666C7.68301 25.9832 9.833 28.3166 12.5663 28.3166H30.3163C32.7163 28.3166 34.8163 26.3499 34.9997 23.9666L35.8997 11.4666C36.0997 8.69993 33.9997 6.44991 31.2163 6.44991H9.69969" stroke="#6E508E" stroke-width="3" stroke-miterlimit="10" stroke-linecap="round" stroke-linejoin="round"/>
<path d="M27.0833 36.6667C28.2339 36.6667 29.1667 35.7339 29.1667 34.5833C29.1667 33.4327 28.2339 32.5 27.0833 32.5C25.9327 32.5 25 33.4327 25 34.5833C25 35.7339 25.9327 36.6667 27.0833 36.6667Z" stroke="#6E508E" stroke-width="2" stroke-miterlimit="10" stroke-linecap="round" stroke-linejoin="round"/>
<path d="M13.7503 36.6667C14.9009 36.6667 15.8337 35.7339 15.8337 34.5833C15.8337 33.4327 14.9009 32.5 13.7503 32.5C12.5997 32.5 11.667 33.4327 11.667 34.5833C11.667 35.7339 12.5997 36.6667 13.7503 36.6667Z" stroke="#6E508E" stroke-width="2" stroke-miterlimit="10" stroke-linecap="round" stroke-linejoin="round"/>
<path d="M15 13.3333H35" stroke="#6E508E" stroke-width="3" stroke-miterlimit="10" stroke-linecap="round" stroke-linejoin="round"/>
</svg>
