<svg width="24" height="24" viewBox="0 0 24 24" fill="none" xmlns="http://www.w3.org/2000/svg">
<path d="M16.42 7.95012C18.86 10.3901 18.86 14.3501 16.42 16.7901C13.98 19.2301 10.02 19.2301 7.58 16.7901C5.14 14.3501 5.14 10.3901 7.58 7.95012C10.02 5.51012 13.98 5.51012 16.42 7.95012Z" fill="#707070"/>
<path d="M8.24905 22.3901C8.15905 22.3901 8.05905 22.3701 7.96905 22.3401C5.71905 21.4401 3.89905 19.8501 2.67905 17.7501C1.49905 15.7001 1.02905 13.3801 1.33905 11.0201C1.38905 10.6101 1.77905 10.3201 2.17905 10.3701C2.58905 10.4201 2.87905 10.8001 2.82905 11.2101C2.56905 13.2401 2.96905 15.2401 3.97905 17.0001C5.01905 18.8001 6.58906 20.1701 8.51905 20.9401C8.89906 21.1001 9.08905 21.5301 8.93905 21.9201C8.82905 22.2101 8.53905 22.3901 8.24905 22.3901Z" fill="#707070"/>
<path d="M5.84962 5.23011C5.62962 5.23011 5.40962 5.13011 5.25962 4.94011C4.99962 4.62011 5.05962 4.15011 5.38962 3.89011C7.28962 2.40011 9.57962 1.61011 11.9996 1.61011C14.3596 1.61011 16.6096 2.37011 18.4996 3.81011C18.8296 4.06011 18.8896 4.53011 18.6396 4.86011C18.3896 5.19011 17.9196 5.25011 17.5896 5.00011C15.9596 3.76011 14.0296 3.11011 11.9996 3.11011C9.91962 3.11011 7.94962 3.79011 6.30962 5.07011C6.16962 5.18011 6.00962 5.23011 5.84962 5.23011Z" fill="#707070"/>
<path d="M15.7507 22.3901C15.4507 22.3901 15.1707 22.2101 15.0507 21.9201C14.9007 21.5401 15.0807 21.1001 15.4707 20.9401C17.4007 20.1601 18.9707 18.8001 20.0107 17.0001C21.0307 15.2401 21.4307 13.2401 21.1607 11.2201C21.1107 10.8101 21.4007 10.4301 21.8107 10.3801C22.2107 10.3301 22.6007 10.6201 22.6507 11.0301C22.9507 13.3801 22.4907 15.7101 21.3107 17.7601C20.1007 19.8601 18.2707 21.4401 16.0207 22.3501C15.9407 22.3701 15.8507 22.3901 15.7507 22.3901Z" fill="#707070"/>
<path d="M9 12H15" stroke="white" stroke-width="2" stroke-linecap="round" stroke-linejoin="round"/>
<path d="M12 9V15" stroke="white" stroke-width="2" stroke-linecap="round" stroke-linejoin="round"/>
</svg>
