<svg width="25" height="25" viewBox="0 0 25 25" fill="none" xmlns="http://www.w3.org/2000/svg">
<path d="M8.3335 2.08301L10.2918 4.04134" stroke="#6E508E" stroke-width="2" stroke-linecap="round" stroke-linejoin="round"/>
<path d="M14.7085 4.04134L16.6668 2.08301" stroke="#6E508E" stroke-width="2" stroke-linecap="round" stroke-linejoin="round"/>
<path d="M9.3752 7.42677V6.3851C9.35631 5.96296 9.42315 5.54138 9.57168 5.14578C9.72021 4.75018 9.94735 4.38878 10.2394 4.08338C10.5314 3.77798 10.8823 3.53492 11.2709 3.36886C11.6595 3.2028 12.0776 3.11719 12.5002 3.11719C12.9228 3.11719 13.3409 3.2028 13.7295 3.36886C14.1181 3.53492 14.469 3.77798 14.761 4.08338C15.053 4.38878 15.2802 4.75018 15.4287 5.14578C15.5772 5.54138 15.6441 5.96296 15.6252 6.3851V7.42677" stroke="#6E508E" stroke-width="2" stroke-linecap="round" stroke-linejoin="round"/>
<path d="M12.5 20.8337C9.0625 20.8337 6.25 18.0212 6.25 14.5837V11.4587C6.25 10.3536 6.68899 9.29378 7.47039 8.51238C8.25179 7.73098 9.3116 7.29199 10.4167 7.29199H14.5833C15.6884 7.29199 16.7482 7.73098 17.5296 8.51238C18.311 9.29378 18.75 10.3536 18.75 11.4587V14.5837C18.75 18.0212 15.9375 20.8337 12.5 20.8337Z" stroke="#6E508E" stroke-width="2" stroke-linecap="round" stroke-linejoin="round"/>
<path d="M12.5 20.833V11.458" stroke="#6E508E" stroke-width="2" stroke-linecap="round" stroke-linejoin="round"/>
<path d="M6.80208 9.37467C4.79167 9.16634 3.125 7.39551 3.125 5.20801" stroke="#6E508E" stroke-width="2" stroke-linecap="round" stroke-linejoin="round"/>
<path d="M6.25016 13.542H2.0835" stroke="#6E508E" stroke-width="2" stroke-linecap="round" stroke-linejoin="round"/>
<path d="M3.125 21.8747C3.125 19.6872 4.89583 17.8122 7.08333 17.708" stroke="#6E508E" stroke-width="2" stroke-linecap="round" stroke-linejoin="round"/>
<path d="M21.8436 5.20801C21.8436 7.39551 20.1769 9.16634 18.1978 9.37467" stroke="#6E508E" stroke-width="2" stroke-linecap="round" stroke-linejoin="round"/>
<path d="M22.9167 13.542H18.75" stroke="#6E508E" stroke-width="2" stroke-linecap="round" stroke-linejoin="round"/>
<path d="M17.9165 17.708C20.104 17.8122 21.8748 19.6872 21.8748 21.8747" stroke="#6E508E" stroke-width="2" stroke-linecap="round" stroke-linejoin="round"/>
</svg>
