<svg width="25" height="25" viewBox="0 0 25 25" fill="none" xmlns="http://www.w3.org/2000/svg">
<g clip-path="url(#clip0_338_1986)">
<path d="M9.89349 10.3776C11.6922 10.3776 13.1503 8.91947 13.1503 7.1208C13.1503 5.32212 11.6922 3.86401 9.89349 3.86401C8.09482 3.86401 6.63672 5.32212 6.63672 7.1208C6.63672 8.91947 8.09482 10.3776 9.89349 10.3776Z" stroke="#6B7280" stroke-width="2" stroke-linecap="round" stroke-linejoin="round"/>
<path d="M3.32568 19.3932V17.5384C3.32568 15.3815 5.0727 13.6345 7.22951 13.6345H13.0745C15.2313 13.6345 16.9783 15.3815 16.9783 17.5384V19.3932" stroke="#6B7280" stroke-width="2" stroke-linecap="round" stroke-linejoin="round"/>
<path d="M18.0245 11.3049C19.3586 11.3049 20.4401 10.2234 20.4401 8.88926C20.4401 7.55515 19.3586 6.47363 18.0245 6.47363C16.6904 6.47363 15.6089 7.55515 15.6089 8.88926C15.6089 10.2234 16.6904 11.3049 18.0245 11.3049Z" stroke="#6B7280" stroke-width="2" stroke-linecap="round" stroke-linejoin="round"/>
<path d="M18.7144 13.7205H20.3751C21.9711 13.7205 23.2652 15.0145 23.2652 16.6106V17.9909" stroke="#6B7280" stroke-width="2" stroke-linecap="round" stroke-linejoin="round"/>
</g>
<defs>
<clipPath id="clip0_338_1986">
<rect width="25" height="25" fill="white"/>
</clipPath>
</defs>
</svg>
