<svg width="12" height="12" viewBox="0 0 12 12" fill="none" xmlns="http://www.w3.org/2000/svg">
<path d="M9.34773 1.875C9.14751 1.87546 8.94938 1.91392 8.76475 1.98814C8.58011 2.06237 8.41265 2.17089 8.272 2.30746L2.41842 7.91697L2.39547 8.02801L1.99049 9.97921L1.875 10.5L2.41879 10.3893L4.45475 10.0012L4.57025 9.97885L10.4238 4.36934C10.5667 4.23479 10.6802 4.07431 10.7576 3.89727C10.8351 3.72024 10.875 3.53019 10.875 3.33822C10.875 3.14625 10.8351 2.9562 10.7576 2.77917C10.6802 2.60213 10.5667 2.44165 10.4238 2.3071C10.2831 2.17056 10.1156 2.06207 9.93087 1.98791C9.74618 1.91375 9.54798 1.87537 9.34773 1.875ZM9.34773 2.55118C9.5343 2.55118 9.72235 2.63277 9.90299 2.80625C10.2632 3.15108 10.2632 3.52536 9.90299 3.87054L9.63721 4.11426L8.53779 3.06097L8.79247 2.80625C8.97348 2.63277 9.16116 2.55118 9.34773 2.55118ZM8.01769 3.56012L9.11637 4.61342L4.63984 8.90321C4.39817 8.45006 4.01342 8.08158 3.54042 7.85028L8.01769 3.56012ZM3.06659 8.42712C3.28568 8.51159 3.48469 8.63762 3.65167 8.79766C3.81865 8.95769 3.95017 9.14841 4.03831 9.35837L2.82339 9.5911L3.06659 8.42712Z" fill="#707070"/>
<path d="M3.06659 8.42712C3.28568 8.51159 3.48469 8.63762 3.65167 8.79766C3.81865 8.95769 3.95017 9.14841 4.03831 9.35837L2.82339 9.5911L3.06659 8.42712Z" fill="#707070"/>
<path d="M9.34773 2.55118C9.5343 2.55118 9.72235 2.63277 9.90299 2.80625C10.2632 3.15108 10.2632 3.52536 9.90299 3.87054L9.63721 4.11426L8.53779 3.06097L8.79247 2.80625C8.97348 2.63277 9.16116 2.55118 9.34773 2.55118Z" fill="#707070"/>
</svg>
