<svg width="12" height="12" viewBox="0 0 12 12" fill="none" xmlns="http://www.w3.org/2000/svg">
<mask id="mask0_504_1886" style="mask-type:alpha" maskUnits="userSpaceOnUse" x="1" y="1" width="10" height="10">
<path d="M1.5 6C1.5 5.53566 1.5 5.30349 1.51926 5.10793C1.70631 3.20882 3.20882 1.70631 5.10793 1.51926C5.30349 1.5 5.53566 1.5 6 1.5C6.46434 1.5 6.69651 1.5 6.89207 1.51926C8.79118 1.70631 10.2937 3.20882 10.4807 5.10793C10.5 5.30349 10.5 5.53566 10.5 6C10.5 6.46434 10.5 6.69651 10.4807 6.89207C10.2937 8.79118 8.79118 10.2937 6.89207 10.4807C6.69651 10.5 6.46434 10.5 6 10.5C5.53566 10.5 5.30349 10.5 5.10793 10.4807C3.20882 10.2937 1.70631 8.79118 1.51926 6.89207C1.5 6.69651 1.5 6.46434 1.5 6Z" fill="#273B4A"/>
</mask>
<g mask="url(#mask0_504_1886)">
<path d="M2.70494 6.29506L2.62857 6.37143C1.9102 7.0898 1.53049 8.07931 1.58389 9.09383L1.75 12.25H10.5V9.87865C10.5 8.84197 10.06 7.85399 9.28943 7.16049L9.18215 7.06394C8.51945 6.46751 7.50584 6.49416 6.8754 7.1246C6.4561 7.5439 5.74187 7.3977 5.50829 6.85267C5.02931 5.73506 3.56473 5.43527 2.70494 6.29506Z" fill="#707070" fill-opacity="0.1" stroke="#707070"/>
</g>
<path d="M1.5 5.5C1.5 3.61438 1.5 2.67157 2.08579 2.08579C2.67157 1.5 3.61438 1.5 5.5 1.5H6.5C8.38562 1.5 9.32843 1.5 9.91421 2.08579C10.5 2.67157 10.5 3.61438 10.5 5.5V6.5C10.5 8.38562 10.5 9.32843 9.91421 9.91421C9.32843 10.5 8.38562 10.5 6.5 10.5H5.5C3.61438 10.5 2.67157 10.5 2.08579 9.91421C1.5 9.32843 1.5 8.38562 1.5 6.5V5.5Z" stroke="#707070"/>
<circle cx="8.25" cy="3.75" r="0.75" fill="#707070"/>
</svg>
