<svg width="14" height="14" viewBox="0 0 14 14" fill="none" xmlns="http://www.w3.org/2000/svg">
<path d="M5.15717 6.76079C6.3705 6.76079 7.35634 5.77496 7.35634 4.56162C7.35634 3.34829 6.3705 2.36246 5.15717 2.36246C3.94383 2.36246 2.95801 3.34829 2.95801 4.56162C2.95801 5.77496 3.94383 6.76079 5.15717 6.76079Z" fill="black"/>
<path d="M9.42699 10.1967V11.2C9.42699 11.4392 9.23449 11.6375 8.98949 11.6375H1.60449C1.36533 11.6375 1.16699 11.4392 1.16699 11.2V10.1967C1.16699 8.79083 2.31032 7.64749 3.71616 7.64749H6.87782C7.16365 7.64749 7.43783 7.69416 7.69449 7.78749C7.69449 7.78749 7.69449 7.78166 7.70032 7.78749C8.70366 8.12582 9.42699 9.07666 9.42699 10.1967Z" fill="black"/>
<path d="M9.42699 10.1967V11.2C9.42699 11.4392 9.23449 11.6375 8.98949 11.6375H1.60449C1.36533 11.6375 1.16699 11.4392 1.16699 11.2V10.1967C1.16699 8.79083 2.31032 7.64749 3.71616 7.64749H6.87782C7.16365 7.64749 7.43783 7.69416 7.69449 7.78749C7.69449 7.78749 7.69449 7.78166 7.70032 7.78749C8.70366 8.12582 9.42699 9.07666 9.42699 10.1967Z" fill="black"/>
<path d="M12.8334 9.69505V10.5175C12.8334 10.71 12.6759 10.8675 12.4834 10.8675H10.3018V10.1967C10.3018 9.60755 10.1501 9.04755 9.88761 8.56338C9.77677 8.36505 9.65427 8.17838 9.51427 8.00921C9.41511 7.89838 9.31594 7.78755 9.21094 7.69421H10.8326C10.8968 7.69421 10.9551 7.69421 11.0134 7.70588C11.0893 7.71171 11.1651 7.72338 11.2409 7.74088C11.6843 7.83421 12.0693 8.07921 12.3551 8.40588C12.4018 8.45838 12.4484 8.51671 12.4893 8.58088C12.4951 8.58088 12.4951 8.58088 12.4893 8.58671C12.6001 8.75005 12.6876 8.92504 12.7459 9.11754C12.7634 9.18171 12.7809 9.24588 12.7926 9.31005C12.8218 9.43255 12.8334 9.56088 12.8334 9.69505Z" fill="black"/>
<path d="M9.55472 6.67908C10.518 6.67908 11.2989 5.89819 11.2989 4.93492C11.2989 3.97164 10.518 3.19075 9.55472 3.19075C8.59144 3.19075 7.81055 3.97164 7.81055 4.93492C7.81055 5.89819 8.59144 6.67908 9.55472 6.67908Z" fill="black"/>
</svg>
