<svg width="20" height="15" viewBox="0 0 20 15" fill="none" xmlns="http://www.w3.org/2000/svg">
<path d="M8.28308 14.9797C4.47417 14.9048 3.17324 14.8374 2.37361 14.6615C1.83261 14.5446 1.36248 14.2851 1.01777 13.9087C0.75135 13.6238 0.539477 13.1892 0.375098 12.5862C0.234096 12.0838 0.17918 11.6658 0.100887 10.6448C-0.0189649 8.34048 -0.0475364 6.45653 0.100887 4.3515C0.223336 3.18904 0.282705 1.80906 1.09606 1.00398C1.48011 0.62719 1.92686 0.384714 2.42853 0.284474C3.2122 0.125597 6.55098 0 10.0074 0C13.456 0 16.8022 0.125597 17.5866 0.284474C18.2133 0.410071 18.8011 0.786463 19.1462 1.27181C19.8883 2.51827 19.9013 4.06822 19.9766 5.2806C20.0077 5.85826 20.0077 9.13843 19.9766 9.71609C19.8593 11.6321 19.7651 12.31 19.4987 13.0129C19.3339 13.4566 19.1933 13.6908 18.9499 13.9503C18.5681 14.3497 18.0814 14.6153 17.5547 14.7118C14.2586 14.9765 11.4597 15.0339 8.28308 14.9797ZM13.3306 7.28063C11.4968 6.23426 9.74096 5.26396 7.94616 4.25958V10.2684C9.83484 9.17211 11.8259 8.16773 13.3384 7.27231L13.3306 7.28063Z" fill="#111827"/>
</svg>
