<svg width="24" height="24" viewBox="0 0 24 24" fill="none" xmlns="http://www.w3.org/2000/svg">
<path d="M21.9595 19.8401L21.4595 17.7301C21.2695 16.9301 20.5495 16.3701 19.7195 16.3701H18.6695V10.5801H19.3795C20.8295 10.5801 21.9995 9.40012 21.9995 7.95012C21.9995 6.91012 21.3895 5.96012 20.4495 5.54012L13.0695 2.22012C12.3895 1.92012 11.6095 1.92012 10.9295 2.22012L3.54953 5.54012C2.60953 5.96012 1.99953 6.91012 1.99953 7.95012C1.99953 9.40012 3.16952 10.5801 4.61952 10.5801H4.83952V16.3701H4.27953C3.44953 16.3701 2.72952 16.9301 2.53952 17.7301L2.03952 19.8401C1.90952 20.3601 2.02952 20.9001 2.36952 21.3301C2.70952 21.7601 3.21953 22.0101 3.77953 22.0101H20.2195C20.7795 22.0101 21.2895 21.7601 21.6295 21.3301C21.9695 20.9001 22.0895 20.3601 21.9595 19.8401ZM11.4895 5.97012H12.5095C12.9295 5.97012 13.2595 6.30012 13.2595 6.72012C13.2595 7.13012 12.9295 7.47012 12.5095 7.47012H11.4895C11.0695 7.47012 10.7395 7.13012 10.7395 6.72012C10.7395 6.30012 11.0695 5.97012 11.4895 5.97012ZM8.95953 16.3701H6.33952V10.5801H8.95953V16.3701ZM13.0495 16.3701H10.4595V10.5801H13.0495V16.3701ZM17.1695 16.3701H14.5495V10.5801H17.1695V16.3701Z" fill="#707070"/>
</svg>
