<svg width="16" height="16" viewBox="0 0 16 16" fill="none" xmlns="http://www.w3.org/2000/svg">
<path fill-rule="evenodd" clip-rule="evenodd" d="M7.99961 14.4001C9.69699 14.4001 11.3249 13.7258 12.5251 12.5256C13.7253 11.3253 14.3996 9.69748 14.3996 8.0001C14.3996 6.30271 13.7253 4.67485 12.5251 3.47461C11.3249 2.27438 9.69699 1.6001 7.99961 1.6001C6.30222 1.6001 4.67436 2.27438 3.47413 3.47461C2.27389 4.67485 1.59961 6.30271 1.59961 8.0001C1.59961 9.69748 2.27389 11.3253 3.47413 12.5256C4.67436 13.7258 6.30222 14.4001 7.99961 14.4001ZM10.9652 6.9657C11.1109 6.81482 11.1916 6.61273 11.1897 6.40298C11.1879 6.19322 11.1038 5.99257 10.9555 5.84424C10.8071 5.69592 10.6065 5.61178 10.3967 5.60996C10.187 5.60814 9.98489 5.68877 9.83401 5.8345L7.19961 8.4689L6.16521 7.4345C6.01433 7.28877 5.81225 7.20814 5.60249 7.20996C5.39273 7.21178 5.19208 7.29592 5.04375 7.44424C4.89543 7.59257 4.81129 7.79322 4.80947 8.00298C4.80765 8.21273 4.88828 8.41482 5.03401 8.5657L6.63401 10.1657C6.78403 10.3157 6.98748 10.3999 7.19961 10.3999C7.41174 10.3999 7.61519 10.3157 7.76521 10.1657L10.9652 6.9657Z" fill="#15803D"/>
</svg>
