<svg width="16" height="16" viewBox="0 0 16 16" fill="none" xmlns="http://www.w3.org/2000/svg">
<g clip-path="url(#clip0_1256_2174)">
<path d="M8 6.66667V10.6667M10.6667 8.66667H5.33333M10 16H3.33333C2.97971 16 2.64057 15.8595 2.39052 15.6095C2.14048 15.3594 2 15.0203 2 14.6667V3.33333C2 2.97971 2.14048 2.64057 2.39052 2.39052C2.64057 2.14048 2.97971 2 3.33333 2H12.6667C13.0203 2 13.3594 2.14048 13.6095 2.39052C13.8595 2.64057 14 2.97971 14 3.33333V12.6667C14 13.0203 13.8595 13.3594 13.6095 13.6095C13.3594 13.8595 13.0203 14 12.6667 14L10 16Z" stroke="#020817" stroke-width="2" stroke-linecap="round" stroke-linejoin="round"/>
</g>
<defs>
<clipPath id="clip0_1256_2174">
<rect width="16" height="16" fill="white"/>
</clipPath>
</defs>
</svg>
