<svg width="14" height="14" viewBox="0 0 14 14" fill="none" xmlns="http://www.w3.org/2000/svg">
<path d="M7 -0.00012207C3.13404 -0.00012207 0 3.13392 0 6.99988C0 10.2826 2.26016 13.0372 5.30908 13.7938V9.13908H3.86568V6.99988H5.30908V6.07812C5.30908 3.6956 6.38736 2.59128 8.72648 2.59128C9.17 2.59128 9.93524 2.67836 10.2483 2.76516V4.70416C10.0831 4.6868 9.79608 4.67812 9.43964 4.67812C8.29192 4.67812 7.8484 5.11296 7.8484 6.24332V6.99988H10.1349L9.74204 9.13908H7.8484V13.9486C11.3145 13.53 14.0003 10.5788 14.0003 6.99988C14 3.13392 10.866 -0.00012207 7 -0.00012207Z" fill="white"/>
</svg>
