<svg width="28" height="28" viewBox="0 0 28 28" fill="none" xmlns="http://www.w3.org/2000/svg">
<path d="M14.9684 2.54342C14.6644 2.40476 14.3342 2.33301 14 2.33301C13.6659 2.33301 13.3357 2.40476 13.0317 2.54342L3.03337 7.09342C2.82635 7.18471 2.65033 7.33422 2.52676 7.52376C2.40319 7.71329 2.3374 7.93467 2.3374 8.16092C2.3374 8.38718 2.40319 8.60856 2.52676 8.79809C2.65033 8.98763 2.82635 9.13714 3.03337 9.22842L13.0434 13.7901C13.3474 13.9287 13.6776 14.0005 14.0117 14.0005C14.3458 14.0005 14.676 13.9287 14.98 13.7901L24.99 9.24009C25.1971 9.14881 25.3731 8.99929 25.4966 8.80976C25.6202 8.62022 25.686 8.39885 25.686 8.17259C25.686 7.94633 25.6202 7.72496 25.4966 7.53542C25.3731 7.34589 25.1971 7.19638 24.99 7.10509L14.9684 2.54342Z" stroke="#4318FF" stroke-width="2.33333" stroke-linecap="round" stroke-linejoin="round"/>
<path d="M2.33338 14C2.33283 14.2231 2.39628 14.4418 2.51621 14.6299C2.63615 14.8181 2.80753 14.9679 3.01004 15.0617L13.0434 19.6233C13.3458 19.7603 13.6739 19.8311 14.0059 19.8311C14.3378 19.8311 14.666 19.7603 14.9684 19.6233L24.9784 15.0733C25.1849 14.9805 25.3599 14.8296 25.4821 14.639C25.6044 14.4484 25.6685 14.2264 25.6667 14" stroke="#4318FF" stroke-width="2.33333" stroke-linecap="round" stroke-linejoin="round"/>
<path d="M2.33338 19.833C2.33283 20.0562 2.39628 20.2748 2.51621 20.4629C2.63615 20.6511 2.80753 20.801 3.01004 20.8947L13.0434 25.4563C13.3458 25.5933 13.6739 25.6641 14.0059 25.6641C14.3378 25.6641 14.666 25.5933 14.9684 25.4563L24.9784 20.9063C25.1849 20.8135 25.3599 20.6626 25.4821 20.472C25.6044 20.2814 25.6685 20.0594 25.6667 19.833" stroke="#4318FF" stroke-width="2.33333" stroke-linecap="round" stroke-linejoin="round"/>
</svg>
