<svg width="24" height="24" viewBox="0 0 24 24" fill="none" xmlns="http://www.w3.org/2000/svg">
<path d="M17 21V19C17 17.9391 16.5786 16.9217 15.8284 16.1716C15.0783 15.4214 14.0609 15 13 15H5C3.93913 15 2.92172 15.4214 2.17157 16.1716C1.42143 16.9217 1 17.9391 1 19V21" stroke="currentColor" stroke-width="2" stroke-linecap="round" stroke-linejoin="round"/>
<circle cx="9" cy="7" r="4" stroke="currentColor" stroke-width="2" stroke-linecap="round" stroke-linejoin="round"/>
<path d="M23 21V19C23 18.1645 22.7155 17.3541 22.2094 16.6977C21.7033 16.0414 20.9999 15.5759 20.2 15.3726" stroke="currentColor" stroke-width="2" stroke-linecap="round" stroke-linejoin="round"/>
<path d="M16 3.37262C16.7999 3.57588 17.5033 4.04135 18.0094 4.69772C18.5155 5.35409 18.8 6.16454 18.8 7C18.8 7.83546 18.5155 8.64591 18.0094 9.30228C17.5033 9.95865 16.7999 10.4241 16 10.6274" stroke="currentColor" stroke-width="2" stroke-linecap="round" stroke-linejoin="round"/>
</svg>