<svg width="50" height="25" viewBox="0 0 50 25" fill="none" xmlns="http://www.w3.org/2000/svg">
<path d="M4.78961 18.2777H5.09723L4.80914 19.5921C4.7652 19.7852 4.77496 19.9355 4.83356 20.032C4.89215 20.1286 4.99957 20.1769 5.16071 20.1769C5.31696 20.1769 5.44879 20.1286 5.55133 20.032C5.65387 19.9355 5.72223 19.7852 5.76618 19.5921L6.05426 18.2777H6.36676L6.07379 19.6243C6.01032 19.914 5.89801 20.134 5.732 20.2788C5.57086 20.4237 5.35602 20.4988 5.09235 20.4988C4.82868 20.4988 4.64801 20.429 4.55036 20.2842C4.4527 20.1393 4.43317 19.9194 4.49664 19.6297L4.78961 18.2777ZM6.32282 20.4397L6.8111 18.1919L7.73883 19.5116C7.76325 19.5492 7.78766 19.5867 7.81207 19.6297C7.83649 19.6726 7.8609 19.7209 7.8902 19.7745L8.21735 18.2777H8.50543L8.01715 20.5202L7.06989 19.1737L6.99664 19.061C6.97223 19.0181 6.9527 18.9805 6.93805 18.9322L6.6109 20.4344H6.32282V20.4397ZM8.48102 20.4397L8.94977 18.2777H9.26227L8.79352 20.4397H8.48102ZM9.23786 20.4397L9.70661 18.2777H10.7759L10.7125 18.5782H9.95563L9.83844 19.1146H10.5953L10.5269 19.4204H9.77008L9.55036 20.4344H9.23786V20.4397ZM10.6539 20.4397L11.1226 18.2777H11.4351L10.9664 20.4397H10.6539ZM11.4107 20.4397L11.8795 18.2777H12.9488L12.8853 18.5782H12.1285L12.0113 19.12H12.7681L12.6998 19.4258H11.9429L11.7916 20.1232H12.5484L12.48 20.4397H11.4107ZM12.8414 20.4397L13.3101 18.2777H13.73C14.0035 18.2777 14.1939 18.2938 14.2964 18.326C14.399 18.3582 14.4869 18.4065 14.5552 18.4816C14.6431 18.5782 14.7017 18.7016 14.7261 18.8464C14.7506 18.9966 14.7408 19.1683 14.7017 19.3561C14.6578 19.5492 14.5943 19.7155 14.5064 19.8657C14.4185 20.0159 14.3062 20.134 14.1744 20.2305C14.0767 20.3056 13.9693 20.3539 13.8521 20.3861C13.7398 20.4183 13.5689 20.4344 13.3443 20.4344H12.8414V20.4397ZM13.2222 20.1179H13.4859C13.6275 20.1179 13.7398 20.1071 13.8179 20.0857C13.8961 20.0642 13.9644 20.0267 14.0279 19.9784C14.1158 19.9086 14.189 19.8228 14.2476 19.7155C14.3062 19.6136 14.3502 19.4902 14.3795 19.3507C14.4088 19.2112 14.4185 19.0932 14.4039 18.9913C14.3892 18.8893 14.355 18.7981 14.2964 18.7284C14.2525 18.6747 14.1988 18.6425 14.1256 18.6211C14.0523 18.5996 13.94 18.5889 13.7789 18.5889H13.5543L13.2222 20.1179ZM16.1373 19.4687L15.9273 20.4397H15.6343L16.1031 18.2777H16.5767C16.7183 18.2777 16.816 18.2885 16.8795 18.3046C16.9429 18.3207 16.9918 18.3475 17.0308 18.3904C17.0797 18.4387 17.1138 18.5084 17.1285 18.5943C17.1431 18.6801 17.1382 18.7713 17.1187 18.8732C17.0943 18.9752 17.0601 19.0717 17.0064 19.1576C16.9527 19.2434 16.8892 19.3131 16.8209 19.3614C16.7623 19.399 16.6988 19.4312 16.6304 19.4473C16.5621 19.4634 16.4547 19.4741 16.3179 19.4741H16.1373V19.4687ZM16.2203 19.179H16.2984C16.4693 19.179 16.5914 19.1576 16.6597 19.1146C16.7281 19.0717 16.772 18.9966 16.7965 18.8893C16.8209 18.7767 16.8062 18.6908 16.7574 18.6479C16.7037 18.5996 16.5963 18.5782 16.4351 18.5782H16.357L16.2203 19.179ZM18.1783 20.4397L18.0806 19.8818H17.3189L16.9771 20.4397H16.65L18.066 18.1919L18.5054 20.4397H18.1783ZM17.5045 19.5867H18.0367L17.9488 19.0932C17.9439 19.061 17.939 19.0234 17.939 18.9859C17.9341 18.943 17.9341 18.9 17.9341 18.8518C17.9146 18.9 17.8951 18.943 17.8707 18.9859C17.8511 19.0288 17.8316 19.0664 17.8121 19.0985L17.5045 19.5867ZM18.9547 20.4397L19.1695 19.4526L18.7789 18.2831H19.106L19.3502 19.0181C19.355 19.0395 19.3599 19.061 19.3697 19.0932C19.3795 19.1254 19.3843 19.1576 19.3941 19.1897L19.4527 19.0932C19.4722 19.061 19.4918 19.0342 19.5113 19.0073L20.0826 18.2831H20.3951L19.482 19.4473L19.2672 20.4344H18.9547V20.4397ZM21.9283 19.3722C21.9283 19.3561 21.9332 19.3078 21.9429 19.2327C21.9478 19.1683 21.9527 19.12 21.9576 19.0771C21.9381 19.1254 21.9185 19.1737 21.8941 19.2273C21.8697 19.2756 21.8404 19.3292 21.8062 19.3775L21.0543 20.531L20.8101 19.3561C20.8004 19.3078 20.7906 19.2595 20.7857 19.2166C20.7808 19.1737 20.7759 19.1254 20.7759 19.0825C20.7662 19.1254 20.7515 19.1737 20.7369 19.2273C20.7222 19.2756 20.7027 19.3292 20.6783 19.3829L20.2388 20.4451H19.9507L20.8931 18.1919L21.1617 19.5546C21.1666 19.576 21.1715 19.6136 21.1763 19.6619C21.1812 19.7101 21.191 19.7745 21.2007 19.8496C21.2349 19.7852 21.2789 19.7101 21.3375 19.6136C21.3521 19.5867 21.3668 19.5706 21.3716 19.5546L22.2213 18.1919L22.192 20.4451H21.9039L21.9283 19.3722ZM22.4459 20.4397L22.9146 18.2777H23.984L23.9205 18.5782H23.1636L23.0465 19.12H23.8033L23.7349 19.4258H22.9781L22.8267 20.1232H23.5836L23.5152 20.4397H22.4459ZM23.8716 20.4397L24.3599 18.1919L25.2877 19.5116C25.3121 19.5492 25.3365 19.5867 25.3609 19.6297C25.3853 19.6726 25.4097 19.7209 25.439 19.7745L25.7662 18.2777H26.0543L25.566 20.5202L24.6187 19.1737L24.5455 19.061C24.5211 19.0181 24.5015 18.9805 24.4869 18.9322L24.1597 20.4344H23.8716V20.4397ZM27.0504 18.5728L26.6451 20.4344H26.3326L26.7379 18.5728H26.23L26.2935 18.2724H27.6216L27.5582 18.5728H27.0504ZM27.3775 20.0052L27.6558 19.8764C27.6607 19.973 27.6851 20.0481 27.7388 20.0964C27.7925 20.1447 27.8658 20.1715 27.9634 20.1715C28.0562 20.1715 28.1343 20.1447 28.2027 20.0857C28.2711 20.0267 28.315 19.9516 28.3345 19.855C28.3638 19.7262 28.2955 19.6136 28.1295 19.517C28.105 19.5009 28.0904 19.4902 28.0758 19.4848C27.8902 19.3668 27.773 19.2649 27.7242 19.1683C27.6754 19.0717 27.6656 18.9591 27.6949 18.8249C27.734 18.6479 27.817 18.5084 27.9488 18.3958C28.0806 18.2885 28.2271 18.2294 28.4029 18.2294C28.5445 18.2294 28.6568 18.2616 28.7398 18.3206C28.8228 18.3797 28.8668 18.4709 28.8814 18.5835L28.608 18.723C28.5836 18.6533 28.5543 18.605 28.5152 18.5728C28.4761 18.5406 28.4273 18.5245 28.3687 18.5245C28.2857 18.5245 28.2125 18.5513 28.1539 18.5996C28.0953 18.6479 28.0562 18.7123 28.0367 18.7981C28.0074 18.9269 28.0904 19.0503 28.2808 19.1629C28.2955 19.1737 28.3052 19.179 28.315 19.1844C28.481 19.281 28.5933 19.3775 28.6422 19.4741C28.691 19.5706 28.7008 19.6833 28.6715 19.8282C28.6275 20.032 28.5347 20.193 28.3931 20.3164C28.2515 20.4344 28.0855 20.4988 27.8902 20.4988C27.7291 20.4988 27.6021 20.4558 27.5142 20.37C27.4166 20.2842 27.3726 20.1608 27.3775 20.0052ZM29.6773 20.4397L30.1461 18.2777H30.4586L29.9898 20.4397H29.6773ZM30.439 20.4397L30.9273 18.1919L31.855 19.5116C31.8795 19.5492 31.9039 19.5867 31.9283 19.6297C31.9527 19.6726 31.9771 19.7209 32.0064 19.7745L32.3336 18.2777H32.6216L32.1334 20.5202L31.1861 19.1737L31.1129 19.061C31.0884 19.0181 31.0689 18.9805 31.0543 18.9322L30.7271 20.4344H30.439V20.4397ZM33.6177 18.5728L33.2125 20.4344H32.9L33.3052 18.5728H32.7974L32.8609 18.2724H34.189L34.1256 18.5728H33.6177ZM33.9547 20.4397L34.4234 18.2777H35.4976L35.4342 18.5782H34.6773L34.5601 19.12H35.317L35.2486 19.4258H34.4918L34.3404 20.1232H35.0972L35.0289 20.4397H33.9547ZM35.8834 19.4687L35.6734 20.4344H35.3804L35.8492 18.2724H36.2838C36.4107 18.2724 36.5084 18.2831 36.5718 18.2992C36.6402 18.3153 36.6939 18.3475 36.733 18.3904C36.7818 18.444 36.8111 18.5084 36.8258 18.5943C36.8404 18.6747 36.8355 18.7659 36.816 18.8679C36.7769 19.0395 36.7134 19.179 36.6158 19.2756C36.5181 19.3722 36.3961 19.4312 36.2496 19.4526L36.6939 20.4344H36.3424L35.9175 19.4687H35.8834ZM35.9615 19.1951H36.0201C36.1861 19.1951 36.2984 19.1737 36.3619 19.1307C36.4254 19.0878 36.4693 19.0127 36.4937 18.9C36.5181 18.782 36.5084 18.6962 36.4595 18.6479C36.4107 18.5996 36.3082 18.5728 36.1519 18.5728H36.0933L35.9615 19.1951ZM36.8843 20.4397L37.3531 18.2777H38.4224L38.359 18.5782H37.6021L37.4849 19.1146H38.2418L38.1734 19.4204H37.4166L37.1968 20.4344H36.8843V20.4397ZM39.4625 20.4397L39.3648 19.8818H38.6031L38.2613 20.4397H37.9342L39.3502 18.1919L39.7896 20.4397H39.4625ZM38.7838 19.5867H39.316L39.2281 19.0932C39.2232 19.061 39.2183 19.0234 39.2183 18.9859C39.2134 18.943 39.2134 18.9 39.2134 18.8518C39.1939 18.9 39.1744 18.943 39.15 18.9859C39.1304 19.0288 39.1109 19.0664 39.0914 19.0985L38.7838 19.5867ZM41.8209 18.8035C41.7525 18.7176 41.6695 18.6533 41.5816 18.6157C41.4937 18.5728 41.3961 18.5513 41.2838 18.5513C41.0738 18.5513 40.8883 18.6264 40.7222 18.7767C40.5562 18.9269 40.4488 19.1254 40.3951 19.3668C40.3463 19.5975 40.3658 19.7906 40.4634 19.9462C40.5562 20.0964 40.7027 20.1715 40.898 20.1715C41.0103 20.1715 41.1226 20.15 41.2349 20.1018C41.3472 20.0588 41.4595 19.9891 41.5767 19.8979L41.4888 20.2949C41.3912 20.3646 41.2886 20.4129 41.1812 20.4451C41.0738 20.4773 40.9664 20.4934 40.8492 20.4934C40.7027 20.4934 40.5709 20.4666 40.4586 20.4129C40.3463 20.3593 40.2535 20.2788 40.1802 20.1715C40.107 20.0696 40.0631 19.9462 40.0435 19.8067C40.024 19.6672 40.0289 19.517 40.0679 19.3561C40.1021 19.1951 40.1607 19.0503 40.2388 18.9108C40.317 18.7713 40.4195 18.6479 40.5367 18.546C40.6539 18.4387 40.7808 18.3582 40.9175 18.3046C41.0543 18.2509 41.191 18.2241 41.3326 18.2241C41.4449 18.2241 41.5474 18.2402 41.6451 18.2777C41.7379 18.3153 41.8258 18.3689 41.9039 18.444L41.8209 18.8035ZM41.8502 20.4397L42.3189 18.2777H43.3883L43.3248 18.5782H42.5679L42.4508 19.12H43.2076L43.1392 19.4258H42.3824L42.231 20.1232H42.9879L42.9195 20.4397H41.8502Z" fill="#707070"/>
<path d="M36.1671 16.3948H34.0235L37.002 4.57617H39.1456L36.1671 16.3948ZM35.0538 4.94634C34.9073 4.72102 34.6778 4.60836 34.3653 4.60836H22.588L22.0069 6.92596H32.7198L32.0948 9.39913H23.5255V9.39377H21.3819L19.6046 16.4485H21.7481L22.9395 11.7167H32.5733C32.8761 11.7167 33.1593 11.6041 33.4229 11.3787C33.6866 11.1534 33.8624 10.8745 33.9454 10.5418L35.1368 5.81008C35.2296 5.456 35.2003 5.17167 35.0538 4.94634ZM18.3546 15.6545C18.2374 16.1212 17.8468 16.4485 17.4073 16.4485H6.3575C6.05476 16.4485 5.83015 16.3358 5.68367 16.1105C5.53718 15.8852 5.503 15.6062 5.5909 15.2736L8.28621 4.60836H10.4298L8.02254 14.1363H16.5968L19.004 4.60836H21.1475L18.3546 15.6545Z" fill="#707070"/>
<path d="M42.8467 4.59766L45.5566 10.5204L39.8584 16.4432L42.8467 4.59766Z" fill="#098041"/>
<path d="M40.9424 4.59766L43.6523 10.5204L37.9492 16.4432L40.9424 4.59766Z" fill="#E97626"/>
</svg>
