<svg width="47" height="55" viewBox="0 0 47 55" fill="none" xmlns="http://www.w3.org/2000/svg">
<path fill-rule="evenodd" clip-rule="evenodd" d="M19.3936 0.80855C21.909 -0.269517 24.757 -0.269517 27.2725 0.80855L44.6465 8.25386C45.872 8.77918 46.666 9.98497 46.666 11.3183V28.8281C46.6659 35.2869 43.5468 41.3484 38.291 45.1025L27.208 53.0185C24.89 54.6742 21.776 54.6742 19.458 53.0185L8.375 45.1025C3.1192 41.3484 0.000143051 35.2869 0 28.8281V11.3183C0 9.98497 0.794055 8.77918 2.01953 8.25386L19.3936 0.80855ZM35.207 16.7783C33.9132 15.7434 32.0252 15.9533 30.9902 17.247L19.751 31.2959L15.4541 27C14.2825 25.8284 12.3835 25.8284 11.2119 27C10.0405 28.1715 10.0404 30.0706 11.2119 31.2421L17.4834 37.5136C18.9584 38.9885 21.3883 38.8542 22.6914 37.2255L35.6758 20.9951C36.7107 19.7013 36.5007 17.8133 35.207 16.7783Z" fill="url(#paint0_linear_1210_1617)"/>
<defs>
<linearGradient id="paint0_linear_1210_1617" x1="46.666" y1="27.1301" x2="0" y2="27.1301" gradientUnits="userSpaceOnUse">
<stop stop-color="#FA8F21"/>
<stop offset="1" stop-color="#F7D59C"/>
</linearGradient>
</defs>
</svg>
