<svg width="62" height="41" viewBox="0 0 62 41" fill="none" xmlns="http://www.w3.org/2000/svg">
<rect width="62" height="41" rx="5" fill="#1434CB"/>
<path d="M38.2976 12.4961C34.8736 12.4961 31.8138 14.2565 31.8138 17.5089C31.8138 21.2389 37.2405 21.4965 37.2405 23.3704C37.2405 24.1594 36.3289 24.8656 34.7721 24.8656C32.5626 24.8656 30.9112 23.8788 30.9112 23.8788L30.2046 27.1608C30.2046 27.1608 32.107 27.9945 34.6327 27.9945C38.3761 27.9945 41.3218 26.1476 41.3218 22.8395C41.3218 18.8982 35.8725 18.6482 35.8725 16.909C35.8725 16.2909 36.6208 15.6137 38.1732 15.6137C39.9248 15.6137 41.3538 16.3314 41.3538 16.3314L42.0454 13.1615C42.0454 13.1615 40.4904 12.4961 38.2976 12.4961ZM6.97158 12.7353L6.88867 13.2138C6.88867 13.2138 8.32914 13.4753 9.62652 13.997C11.297 14.5951 11.416 14.9433 11.6973 16.0249L14.763 27.7477H18.8726L25.2038 12.7353H21.1036L17.0355 22.9423L15.3754 14.2904C15.2232 13.3002 14.452 12.7353 13.5081 12.7353H6.97158ZM26.8525 12.7353L23.6361 27.7477H27.5459L30.7511 12.7353H26.8525ZM48.6592 12.7353C47.7163 12.7353 47.2168 13.236 46.8503 14.111L41.1221 27.7477H45.2222L46.0155 25.4749H51.0107L51.4931 27.7477H55.1109L51.9547 12.7353H48.6592ZM49.1924 16.7912L50.4078 22.4246H47.1517L49.1924 16.7912Z" fill="white"/>
</svg>
